<?xml version="1.0" encoding="UTF-8"?>
<svg width="12.729in" height="12.73in" version="1.1" viewBox="0 0 1145.6443 1145.694" xmlns="http://www.w3.org/2000/svg" xmlns:cc="http://creativecommons.org/ns#" xmlns:dc="http://purl.org/dc/elements/1.1/" xmlns:rdf="http://www.w3.org/1999/02/22-rdf-syntax-ns#">
<metadata>
<rdf:RDF>
<cc:Work rdf:about="">
<dc:format>image/svg+xml</dc:format>
<dc:type rdf:resource="http://purl.org/dc/dcmitype/StillImage"/>
<dc:title/>
</cc:Work>
</rdf:RDF>
</metadata>
<g transform="translate(1715.7 -345.25)">
<g transform="translate(-465.65 109.11)">
<g transform="translate(753.57 381.84)">
<path d="m-1983.5 999.83c-0.495-0.126-1.6792-0.2452-2.6316-0.2647-4.1131-0.084-10.525-4.4912-14.018-9.6345-1.9971-2.9409-2.8862-5.2101-3.1739-8.101-0.3319-3.3341-0.3319-1106.1 0-1109.4 0.8225-8.2645 9.6087-17.051 17.873-17.873 3.3341-0.33183 1106.1-0.33183 1109.4 0 8.2545 0.82154 17.052 9.6187 17.873 17.873 0.33183 3.3341 0.33183 1106.1 0 1109.4-0.16887 1.6967-0.53007 3.1662-1.0793 4.3912-3.0806 6.8703-10.1 12.686-16.194 13.418-2.753 0.3306-1106.8 0.52097-1108.1 0.1911zm1081.7-23.721c5.2168-0.8452 9.3713-2.9977 13.227-6.8529 3.9103-3.9103 6.1117-8.2141 6.8642-13.42 0.41115-2.8441 0.41115-1054.6 0-1057.4-0.75255-5.2056-2.9539-9.5093-6.8642-13.42-3.9039-3.9039-8.1142-6.0626-13.395-6.868-1.4591-0.22253-159.91-0.2932-530.08-0.23644l-528 0.081-2.1116 0.65848c-4.551 1.4192-7.7171 3.2754-10.736 6.2941-3.0187 3.0187-4.8749 6.1849-6.2941 10.736l-0.6585 2.1116-0.085 527.7c-0.057 355.32 0.014 528.46 0.2193 530.03 0.7038 5.3923 2.8828 9.7403 6.8891 13.747 3.7581 3.7581 8.0458 6.0174 12.976 6.8371 2.4023 0.3995 1055.6 0.4152 1058.1 0.016zm-1047.6-97.127c0-44.95 0.1045-67.921 0.3189-70.125 3.0829-31.682 28.02-56.945 59.338-60.113 2.0648-0.2089 25.684-0.3143 70.425-0.3143h67.318v67.018c0 43.472-0.1078 68.11-0.3069 70.125-2.0589 20.836-13.901 39.734-31.793 50.738-7.9082 4.8636-18.076 8.2725-27.427 9.1954-2.2347 0.2205-24.685 0.3234-70.575 0.3234h-67.298zm135.78 35.484c13.23-2.3072 24.442-11.977 28.744-24.792 1.9271-5.7407 1.7813-1.2332 1.8879-58.368l0.097-51.975h-50.835c-34.54 0-51.576 0.1031-53.148 0.3218-13.659 1.8997-25.506 12.074-29.813 25.603-1.878 5.8998-1.8136 3.7986-1.8155 59.2v50.475h51.111c44.788 0 51.44-0.057 53.774-0.4644zm-68.871-25.663c-6.7143-1.3162-11.146-8.4643-9.9639-16.073 0.8544-5.5012 4.2029-9.5865 9.0297-11.016 1.4517-0.4301 5.0221-0.4828 32.721-0.4828 27.52 0 31.278 0.055 32.72 0.4765 6.2825 1.8371 10.058 8.4329 9.0297 15.775-0.8251 5.891-4.8216 10.329-10.216 11.344-2.0097 0.3783-61.383 0.3563-63.32-0.023zm-1.8945-28.596c-3.6719-1.5145-6.071-4.0561-7.4987-7.9442-0.49-1.3348-0.6175-2.3939-0.6175-5.1319s0.1275-3.7971 0.6175-5.1318c1.2868-3.5044 3.4738-5.9819 6.6733-7.5597l1.9437-0.9585h32.563 32.563l1.9437 0.9585c3.2034 1.5797 5.3971 4.067 6.6674 7.5597 0.872 2.3977 0.872 7.8659 0 10.264-1.2703 3.4926-3.4639 5.9799-6.6673 7.5596l-1.9435 0.9585-32.256 0.07-32.256 0.07zm0.6809-27.738c-4.7289-1.5196-7.9662-5.6066-8.7611-11.061-1.1437-7.8466 3.4144-14.833 10.426-15.981 1.0724-0.1755 13.579-0.2922 31.335-0.2922s30.262 0.1167 31.335 0.2922c5.4781 0.8971 9.5768 5.3648 10.416 11.353 1.0329 7.3744-2.7002 13.893-9.0297 15.768-1.4534 0.4306-5.0017 0.481-32.85 0.4666-29.002-0.015-31.338-0.054-32.87-0.5463zm196.51 112.88c-4.4731-1.202-8.5798-5.3561-9.7446-9.8571-0.2544-0.9834-0.4627-2.9463-0.4627-4.362 0-4.715 1.3581-7.9758 4.5619-10.953 2.8851-2.6811 5.7234-3.7269 10.15-3.7395 4.4267-0.013 7.353 1.0979 10.338 3.9235 3.0072 2.8466 4.35 6.1709 4.35 10.769 0 4.5983-1.3428 7.9226-4.35 10.769-3.0285 2.8667-5.9183 3.9444-10.488 3.9111-1.4916-0.011-3.4512-0.2184-4.3547-0.4612zm63.058 0.046c-6.619-1.6026-12.477-7.6661-15.348-15.887-1.8499-5.2966-1.9374-6.3992-1.9529-24.628l-0.014-16.5 1.1597-3c3.6942-9.5562 3.9196-17.639 0.6272-22.491-0.4053-0.5972-0.7369-1.4173-0.7369-1.8225 0-0.6669 0.1207-0.7365 1.275-0.7349 1.9817 0 6.7546 0.7982 9.075 1.5125 2.9734 0.9152 6.9004 3.0112 9.2083 4.9148 4.1515 3.4244 6.681 7.8526 8.2411 14.427 0.4182 1.7623 0.5248 4.7253 0.6737 18.72l0.1769 16.627 3.1407 1.179c3.8291 1.4374 8.5933 2.5447 12.009 2.7912 3.23 0.233 6.2791-0.373 9.15-1.8186 1.155-0.5816 2.4038-1.0568 2.775-1.0561 0.6232 0 0.675 0.1365 0.675 1.762 0 5.5982-2.5136 12.824-5.9505 17.107-4.0171 5.0055-8.9364 7.7218-16.1 8.8898-3.4737 0.5664-15.756 0.5717-18.085 0.01zm116.74-0.01c-6.2106-1.1268-12.111-4.2524-15.666-8.298-2.5029-2.8486-4.3894-6.5702-5.4614-10.774-0.5528-2.1677-0.6673-3.6534-0.7926-10.289-0.1682-8.9068 0-10.28 1.7155-13.845 3.825-7.957 14.278-13.65 25.063-13.65 2.4641 0 3.0926 0.1204 5.5205 1.0581 3.2161 1.242 7.858 2.3958 11.366 2.8249 4.0913 0.5005 8.7605-0.4646 11.424-2.3612 0.4803-0.342 1.1562-0.6219 1.502-0.6219 0.5809 0 0.6286 0.1667 0.6286 2.1949 0 5.9937-2.7513 13.506-6.483 17.7-4.375 4.918-10.027 7.5582-17.944 8.3824l-3.577 0.3723-1.1785 3.1408c-1.4372 3.8299-2.5443 8.5942-2.7908 12.009-0.2331 3.23 0.3729 6.2792 1.8186 9.15 0.5816 1.155 1.0568 2.4038 1.0561 2.775 0 0.6359-0.1187 0.6735-2.0264 0.648-1.1137-0.015-2.9923-0.2026-4.1747-0.4172zm141.35 0.2322c-7.5858-1.0296-14.583-4.9138-18.342-10.182-2.8387-3.978-4.5508-9.1006-4.8333-14.461l-0.1636-3.1048-1.2639-0.5418c-2.6628-1.1414-7.9242-2.6659-10.91-3.1612-5.2656-0.8734-10.018-0.2196-13.255 1.8237-0.6437 0.4064-1.5106 0.7389-1.9264 0.7389-0.6896 0-0.7558-0.1119-0.7542-1.275 0-2.1993 0.8515-7.0295 1.66-9.4505 3.1393-9.3999 9.7688-15.117 19.743-17.025 3.3568-0.6422 16.753-0.6358 19.23 0.01 7.1198 1.8545 13.408 9.1695 15.725 18.292 0.6701 2.6392 1.241 6.7166 1.241 8.8634 0 0.8788-0.4364 2.5373-1.2031 4.5718-2.1071 5.5917-2.8197 9.0594-2.8184 13.715 0 4.3837 0.4608 6.3198 2.0811 8.7682 0.4072 0.6154 0.7404 1.4594 0.7404 1.8754 0 0.7383-0.049 0.7553-2.025 0.7115-1.1137-0.025-2.43-0.1-2.925-0.1671zm49.887-0.2534c-2.3297-0.5648-5.4329-2.1937-7.5026-3.9382-4.8881-4.1199-8.5689-11.537-9.5014-19.146-0.2004-1.6356-0.3312-8.5841-0.3317-17.625v-14.925h-4.7456c-3.465 0-5.1852-0.1293-6.375-0.4789-8.1904-2.4073-14.442-10.62-16.295-21.407-0.4034-2.3481-0.4844-5.4205-0.4844-18.361v-15.541l-14.175-0.094-14.175-0.094-4.35-1.5435c-8.9166-3.1638-15.935-3.2379-20.718-0.2187-0.6437 0.4064-1.5106 0.7389-1.9263 0.7389-0.6897 0-0.7559-0.1119-0.7542-1.275 0-2.2078 0.8529-7.0342 1.664-9.4505 3.5614-10.609 11.84-16.785 23.309-17.39l3.225-0.1699v-4.8531c0-5.4581 0.2666-6.7895 2.0385-10.18 1.2714-2.4325 4.4425-5.8014 7.2129-7.6628 4.161-2.7958 9.3558-4.5545 15.294-5.1778l3.395-0.3563 0.4606-1.0676c1.7783-4.1218 3.2738-10.049 3.5754-14.172 0.2319-3.17-0.3825-6.2386-1.8211-9.0956-0.5817-1.155-1.0569-2.4038-1.0562-2.775 0-0.6232 0.1366-0.675 1.7621-0.675 5.5981 0 12.824 2.5136 17.107 5.9505 5.0055 4.0171 7.7218 8.9364 8.8897 16.1 0.3726 2.2847 0.4405 9.4017 0.4415 46.275v43.575h13.35 13.35v-4.7456c0-3.4651 0.1292-5.1852 0.4789-6.375 2.4206-8.2358 10.578-14.416 21.535-16.317 1.4653-0.2542 3.3891-0.4621 4.275-0.4621h1.6107v-4.3353c0-5.1733 0.2854-6.7439 1.8018-9.9147 2.4766-5.179 7.73-9.4615 14.512-11.83 4.9751-1.7376 6.0858-1.8198 24.559-1.8198h16.794l2.8915 1.0847c3.6767 1.3792 7.5658 2.3661 10.946 2.7776 4.2489 0.5173 8.6588-0.3409 11.436-2.2255 0.5972-0.4053 1.4358-0.7368 1.8636-0.7368h0.7778l-0.2126 2.8962c-0.5966 8.1277-4.3682 15.898-9.7135 20.011-3.8138 2.9346-8.7329 4.7319-14.635 5.3472l-3.4209 0.3565v30.77c0 18.573-0.1215 31.809-0.3028 33.391-0.3761 3.2824-1.1441 5.3543-3.0301 8.1741-4.0172 6.0062-11.598 10.132-20.657 11.243-1.4435 0.1771-8.9305 0.3118-17.325 0.3118h-14.783v3.975c0 2.3233-0.1884 4.8475-0.4461 6.075-1.8163 8.6514-10.46 15.555-21.774 17.39-3.7224 0.6036-15.541 0.6004-18.038 0zm149.46-0.027c-2.0711-0.9258-6.0941-2.1949-8.8514-2.7923-6.1939-1.3419-10.266-1.0505-14.399 1.0304-1.155 0.5816-2.4037 1.0568-2.775 1.0561-0.6231 0-0.675-0.1366-0.675-1.7621 0-2.336 0.7114-6.2934 1.5979-8.8893 2.2928-6.7141 6.2053-11.441 11.906-14.386 3.7023-1.9122 7.4255-2.8076 13.475-3.2407 0.9726-0.07 1.0752-0.1877 1.8892-2.1737 1.1324-2.7622 2.2304-6.6106 2.7844-9.7587 0.8999-5.1133 0.4004-9.3399-1.5158-12.827-0.5699-1.0369-1.0362-2.1684-1.0362-2.5143 0-0.6075 0.1051-0.6239 3.075-0.4792 10.582 0.5158 19.478 6.4724 23.072 15.449 1.7434 4.3538 2.125 7.1229 2.161 15.68 0.032 7.6176 0.029 7.66-0.7938 9.9984-2.8281 8.041-10.653 13.806-21.2 15.617-3.5961 0.6178-7.3215 0.6142-8.7143-0.01zm79.3 0.049c-6.2106-1.1269-12.111-4.2524-15.666-8.298-2.5029-2.8486-4.3894-6.5702-5.4614-10.774-0.5528-2.1677-0.6673-3.6533-0.7926-10.288-0.1682-8.9068 0-10.28 1.7155-13.845 1.8366-3.8206 5.4735-7.4302 9.9253-9.8509 4.0152-2.1833 10.084-3.7991 14.268-3.7991h1.9107l0.01-4.125c0.01-7.56 1.3068-11.009 5.839-15.525 4.9234-4.9055 10.727-7.4484 18.958-8.3064l3.3975-0.3541v-13.145-13.145h-41.378-41.378l-0.8915 2.325c-3.8031 9.9178-4.1238 17.857-0.9249 22.901 0.4801 0.7569 0.8728 1.6682 0.8728 2.025 0 0.5994-0.1505 0.6487-1.9778 0.6487-2.556 0-7.4105-0.9948-10.299-2.1105-8.1512-3.1485-13.392-9.3108-15.421-18.134-0.6039-2.6255-0.6252-3.6053-0.7243-33.23l-0.1021-30.525h-46.425c-40.576 0-46.65-0.058-48.213-0.4565-5.6952-1.4539-10.448-5.6348-13.634-11.994-2.1696-4.33-3.6041-9.9456-3.6041-14.109v-1.3157l-18.975-0.091c-18.736-0.09-19-0.1-20.962-0.7629-4.0574-1.3712-8.8718-5.3995-11.312-9.4651-1.4119-2.3523-2.9539-6.0304-3.6193-8.6333-1.0596-4.1449-1.2299-7.2438-1.2307-22.398v-14.775h-18.285c-12.025 0-18.829-0.1119-19.875-0.327-2.5216-0.5187-6.1826-2.4346-8.2708-4.3283-3.4921-3.167-5.8612-6.8257-7.549-11.658-1.7376-4.9751-1.8199-6.0858-1.8199-24.559v-16.794l1.0847-2.8915c3.6238-9.66 3.8189-17.569 0.5521-22.382-0.4052-0.59721-0.7368-1.4173-0.7368-1.8225 0-0.66696 0.1206-0.7365 1.275-0.73491 1.9816 3e-3 6.7545 0.79821 9.075 1.5124 2.9734 0.91521 6.9004 3.0112 9.2082 4.9148 5.0106 4.133 7.905 10.19 8.7083 18.225l0.3545 3.5457h27.24 27.24v-13.35-13.35h-14.11c-12.277 0-14.254-0.0624-15.225-0.48057-4.1805-1.8012-10.078-3.2923-14.22-3.5953-3.17-0.23193-6.2386 0.38247-9.0956 1.8211-1.155 0.58161-2.4038 1.0568-2.775 1.0561-0.6232 0-0.675-0.13653-0.675-1.762 0-5.7151 2.7438-13.417 6.228-17.481 4.3129-5.0313 9.3561-7.6451 16.669-8.6391 1.4688-0.19965 9.9985-0.31734 22.8-0.31455 22.474 5e-3 22.526 8e-3 26.136 1.8353 5.1709 2.6173 9.652 8.2847 11.832 14.964 1.7434 5.3426 1.6478 3.098 1.7568 41.29 0.1112 38.999 0.1751 37.563-1.8529 41.656-3.3177 6.6967-10.985 11.68-20.293 13.19-1.5536 0.252-3.4659 0.4587-4.2496 0.4593h-1.425v13.35 13.35h18.696c16.239 0 18.91 0.063 20.325 0.4789 8.2359 2.4206 14.416 10.578 16.317 21.535 0.2542 1.4654 0.4622 3.3891 0.4622 4.275v1.6107h41.25 41.25v-18.075c0.01-20.19 0.038-20.581 2.0061-24.525 0.8537-1.7105 1.7727-2.8973 3.8328-4.95 2.8768-2.8663 4.6616-4.07 8.4877-5.7242 5.8382-2.5241 8.7026-2.8239 26.993-2.8249h14.775v-4.437c0-4.9204 0.3561-6.8714 1.791-9.813 3.2783-6.7207 11.669-12.011 21.139-13.328 1.4-0.1947 8.3879-0.3217 17.702-0.3217h15.389l1.1031-2.8822c1.2771-3.3363 2.4278-7.9323 2.8462-11.368 0.5034-4.1323-0.4627-8.8714-2.3482-11.519-0.342-0.48027-0.6219-1.1561-0.6219-1.5019 0-0.58152 0.1663-0.62868 2.2169-0.62868 4.4628 0 10.093 1.5682 14.032 3.9083 6.927 4.1152 10.939 10.704 11.93 19.592 0.1842 1.6513 0.3207 9.1406 0.3207 17.588v14.712h17.775c10.398 0 18.584 0.1273 19.725 0.3036 1.2336 0.1907 2.9821 0.8071 4.7594 1.6779 7.4724 3.6611 12.895 12.987 13.457 23.141l0.16998 3.075h13.285 13.285l0.91581-2.3748c1.9332-5.0128 3.3305-11.145 3.3214-14.575-6e-3 -2.366-0.78954-5.5165-1.9391-7.8-0.58143-1.155-1.0565-2.4231-1.0558-2.8181 0-0.7178 3e-3 -0.7179 2.6312-0.5195 13.887 1.0484 23.168 9.2045 25.132 22.088 0.65649 4.3055 0.64083 43.48-0.0183 46.062-1.454 5.6951-5.6348 10.448-11.994 13.634-4.3354 2.1723-9.9454 3.6041-14.122 3.6041h-1.3283v27.3 27.3h4.437c4.9204 0 6.8714 0.3561 9.813 1.791 6.7207 3.2783 12.011 11.669 13.328 21.139 0.59673 4.2904 0.44136 6.2526-0.7296 9.2138-2.3486 5.9391-3.4817 12.362-2.903 16.454 0.34269 2.4233 1.1943 4.8722 2.2076 6.3479 0.30072 0.438 0.54675 1.1467 0.54675 1.575 0 0.7718-0.0204 0.7786-2.325 0.7722-1.2788 0-3.4725-0.2619-4.875-0.574-12.802-2.8491-20.037-11.343-20.908-24.544l-0.18291-2.775h-4.29c-5.1302 0-6.7008-0.2872-9.8874-1.808-5.8631-2.7981-10.402-9.0563-12.825-17.683-0.606-2.1576-0.63912-3.0301-0.73665-19.406l-0.10212-17.147-5.4592-0.1214c-6.2957-0.1399-7.3367-0.4172-11.155-2.9707-6.2331-4.1689-10.316-11.955-11.324-21.593l-0.34212-3.2719h-13.144-13.144v13.35 13.35h4.8221c4.3575 0 5.0391 0.073 7.0734 0.7557 7.8473 2.6343 13.715 10.623 15.52 21.13 0.66648 3.8798 0.68448 15.604 0.0279 18.176-1.454 5.6951-5.6348 10.448-11.994 13.634-4.3354 2.1723-9.9454 3.6041-14.122 3.6041h-1.3283v13.35 13.35h4.7456c3.465 0 5.1852 0.1292 6.375 0.4789 8.2017 2.4105 14.44 10.605 16.295 21.407 0.82578 4.8072 0.68082 6.8855-0.74391 10.666-1.4808 3.9296-2.5954 8.6887-2.845 12.148-0.2331 3.2299 0.37289 6.2791 1.8185 9.15 0.58161 1.155 1.0568 2.4037 1.0561 2.775 0 0.6232-0.13653 0.675-1.762 0.675-2.336 0-6.2934-0.7113-8.8893-1.5978-10.727-3.6633-16.678-11.731-17.466-23.679l-0.1732-2.6266-27.307 0.077-27.307 0.077-1.1792 3.1407c-1.4375 3.8287-2.5449 8.5929-2.7914 12.009-0.2331 3.2299 0.3729 6.2791 1.8185 9.15 0.5816 1.155 1.0569 2.4037 1.0562 2.775 0 0.6359-0.1188 0.6734-2.0264 0.6479-1.1137-0.015-2.9924-0.2026-4.1748-0.4171zm34.1-182.11v-41.25h-41.25-41.25v41.25 41.25h41.25 41.25zm-45.39 14.221c-2.036-0.4792-4.3987-1.7928-6.1477-3.4182-3.2038-2.9774-4.5619-6.2381-4.5619-10.953 0-4.715 1.3581-7.9758 4.5619-10.953 2.8851-2.6811 5.7234-3.7269 10.15-3.7395 4.4267-0.013 7.353 1.0979 10.338 3.9235 3.0072 2.8466 4.35 6.1709 4.35 10.769 0 4.5983-1.3428 7.9226-4.35 10.769-3.0377 2.8754-5.9305 3.9514-10.488 3.9007-1.4916-0.016-3.2252-0.1509-3.8524-0.2985zm154.35 167.26c-4.9919-2.0841-11.631-3.3664-15.48-2.9901-2.4755 0.242-5.1341 1.0718-6.7969 2.1215-0.64374 0.4063-1.5106 0.7388-1.9264 0.7388-0.74016 0-0.75597-0.047-0.75597-2.2303 0-5.5974 2.5652-12.716 6.175-17.135 4.2114-5.1563 11.226-8.3227 19.367-8.7426l3.4919-0.18 3.4043 1.2759c4.0762 1.5278 8.778 2.6342 12.262 2.8857 3.23 0.233 6.2791-0.373 9.15-1.8186 1.155-0.5816 2.4038-1.0568 2.775-1.0561 0.62316 0 0.675 0.1365 0.675 1.762 0 5.5982-2.5136 12.824-5.9505 17.107-4.8 5.981-11.351 8.9501-20.3 9.2011-3.533 0.099-3.6463 0.082-6.0906-0.9389zm-616.41-56.149c-3.4137-1.3247-7.3499-2.3286-10.755-2.7432-4.2488-0.5172-8.6588 0.341-11.436 2.2256-0.5972 0.4052-1.4372 0.7368-1.8668 0.7368h-0.7809l0.1989-2.8298c0.5663-8.0564 4.3923-15.969 9.6931-20.045 3.6936-2.8406 8.5918-4.688 14.139-5.333 4.0572-0.4716 5.1691-0.3137 10.257 1.4574 8.9932 3.1304 15.958 3.194 20.718 0.1894 0.6437-0.4064 1.5106-0.7389 1.9264-0.7389 0.6903 0 0.7554 0.1108 0.75 1.275-0.016 3.4869-1.2913 9.0762-2.8304 12.407-4.3423 9.3984-13.017 14.606-24.122 14.482-2.8846-0.032-3.4517-0.1366-5.8919-1.0834zm112.35 0.085c-2.9655-1.2019-7.7838-2.411-11.352-2.8489-4.0419-0.4959-8.1056 0.2797-10.964 2.0927-0.7721 0.4897-1.6692 0.8903-1.9935 0.8903-0.5357 0-0.5892-0.2123-0.5856-2.325 0.011-6.7752 3.0671-14.192 7.7756-18.872 4.3792-4.3533 10.107-6.6475 17.92-7.1781l3.0498-0.2071 3.3302 1.2482c5.7523 2.1559 9.1451 2.857 13.82 2.8556 4.3838 0 6.3199-0.4607 8.7682-2.081 0.6155-0.4073 1.4798-0.7405 1.9207-0.7405h0.8018l-0.1887 2.925c-0.6572 10.191-5.8186 18.551-13.852 22.436-3.9278 1.8994-6.9703 2.6005-11.85 2.7306-4.0334 0.1075-4.0604 0.1037-6.6-0.9254zm265.05 0.6273c-4.8764-1.6072-8.3571-5.2198-9.5901-9.9537-0.6033-2.316-0.5918-6.486 0.024-8.56 1.9333-6.516 7.281-10.445 14.217-10.445 6.9513 0 12.568 4.1718 14.292 10.615 0.5394 2.0163 0.5137 6.2201-0.052 8.3895-1.0567 4.0573-3.7171 7.263-7.5435 9.0901-2.2992 1.0978-2.4253 1.1218-6.2466 1.1897-2.5964 0.046-4.3011-0.063-5.1-0.3261zm195.28-0.3022c-2.4995-0.9293-3.6646-1.6999-5.4925-3.6326-6.6233-7.0032-4.5911-19.331 3.8673-23.459 9.4037-4.5898 20.458 1.0001 21.589 10.917 0.61878 5.4255-0.89448 10.075-4.3009 13.215-2.9632 2.7313-5.6822 3.6756-10.519 3.6528-2.6829-0.013-3.6706-0.1458-5.1436-0.6934zm-712.27-28.261c-4.9919-2.0841-11.631-3.3664-15.48-2.9901-2.5054 0.2449-5.281 1.1085-6.8478 2.1306-0.6152 0.4013-1.5274 0.7297-2.0271 0.7297h-0.9085l0.1753-2.175c1.2721-15.781 10.55-25.153 25.671-25.933l3.4918-0.18 3.4043 1.2759c4.0762 1.5277 8.778 2.6342 12.262 2.8857 3.23 0.233 6.2792-0.373 9.15-1.8186 1.155-0.5816 2.4038-1.0568 2.775-1.0561 0.6232 0 0.675 0.1365 0.675 1.762 0 2.3361-0.7113 6.2935-1.5978 8.8893-2.5606 7.4982-7.1925 12.585-14.002 15.377-3.147 1.2904-6.4518 1.9239-10.65 2.0417-3.533 0.099-3.6463 0.082-6.0906-0.9389zm192.94 0.626c-13.026-2.3635-21.012-11.309-21.895-24.526l-0.1952-2.9208-60.93-0.079-60.93-0.079-1.9869-0.6753c-4.0656-1.3817-8.8738-5.4065-11.312-9.4689-2.5309-4.2165-4.0249-8.9212-4.6073-14.508l-0.3541-3.3976h-4.6903c-3.4144 0-5.1335-0.1302-6.3197-0.4789-8.1904-2.4072-14.442-10.62-16.295-21.407-0.4034-2.3481-0.4845-5.421-0.4845-18.367v-15.547h-3.825c-5.3509 0-7.2104-0.3529-10.534-1.9815-2.3079-1.1308-3.2451-1.8156-5.25-3.8359-4.7638-4.8007-7.7734-11.826-8.2054-19.155l-0.1724-2.925h-97.703-97.703l-3.1695-1.1944c-10.31-3.885-18.072-4.0927-23.188-0.6204-0.495 0.336-1.2234 0.6117-1.6186 0.6128h-0.7186l0.1822-2.925c0.812-13.028 8.67-22.547 20.455-24.778 1.32-0.25 3.5609-0.5483 4.9798-0.6631l2.5799-0.2088 1.1111-3.0045c2.0395-5.5151 2.7071-8.8387 2.6956-13.42-0.011-4.3841-0.477-6.352-2.0759-8.7682-0.4073-0.6157-0.7405-1.48-0.7405-1.921v-0.8017l2.925 0.1886c10.871 0.7011 19.406 6.344 23.131 15.293 1.1383 2.7342 2.1437 7.6031 2.1437 10.381v2.1278h13.35 13.35v-13.211-13.211l-1.425-0.617c-6.7258-2.9119-14.816-4.2159-19.423-3.1307-1.1539 0.2719-2.9473 0.9611-3.9853 1.5317-1.038 0.5705-2.2239 1.0373-2.6353 1.0373-0.7409 0-0.7463-0.019-0.572-2.025 1.0402-11.972 6.0459-19.916 15.042-23.873 4.2307-1.8609 5.7864-2.0897 15.154-2.2286 7.4248-0.1101 8.8442-0.0585 10.35 0.37644 4.1779 1.2067 8.2917 4.226 11.078 8.1306 3.3556 4.7024 5.7875 12.191 5.8113 17.895l0.01 1.425h4.3352c5.1734 0 6.7439 0.2854 9.9148 1.8018 3.8161 1.8249 7.4262 5.4601 9.8509 9.9193 2.1833 4.0152 3.7991 10.084 3.7991 14.268v1.9107h27.303 27.303l-0.078-13.275-0.078-13.275-2.5288-1.0091c-1.3908-0.5551-4.0908-1.4192-6-1.9202-3.0428-0.7986-3.9895-0.9132-7.6712-0.9284-4.5508-0.019-6.421 0.4146-8.9183 2.0672-0.6154 0.4073-1.479 0.7405-1.919 0.7405h-0.8l0.1724-2.925c0.46-7.8042 4.059-15.354 9.3751-19.667 2.3459-1.9033 6.5233-3.9194 9.8898-4.7731 2.5097-0.63639 3.3239-0.68466 11.55-0.68466 7.7574 0 9.0537 0.0675 10.5 0.54651 6.8069 2.2546 12.483 9.1498 14.935 18.142l0.794 2.9117 0.1013 17.025 0.1013 17.025 4.1091 0.01c7.5426 0.01 10.996 1.3099 15.509 5.839 4.9056 4.9234 7.4484 10.727 8.3064 18.958l0.3542 3.3975h4.6902c3.4145 0 5.1335 0.1303 6.3197 0.4789 8.2359 2.4206 14.416 10.578 16.317 21.535 0.3761 2.1679 0.4622 5.5638 0.4622 18.225v15.561h13.153 13.153l0.1889-4.7979c0.1581-4.0166 0.3133-5.1686 0.9527-7.0734 2.6536-7.905 10.59-13.714 21.267-15.566 1.4653-0.2542 3.3891-0.4622 4.275-0.4622h1.6107v-27.3-27.3h-28.06c-25.071 0-28.178-0.051-29.175-0.4806-4.1805-1.8012-10.078-3.2923-14.22-3.5953-3.17-0.2319-6.2386 0.3825-9.0956 1.8211-1.155 0.5817-2.4038 1.0569-2.775 1.0562-0.6232 0-0.675-0.1366-0.675-1.7621 0-4.9848 2.1658-11.807 5.1123-16.103 1.1409-1.6636 3.8522-4.3763 5.5229-5.5258 1.8639-1.2824 5.0509-2.8339 7.0648-3.4393 4.3636-1.3117 5.8583-1.3673 36.825-1.3691h29.475v-13.2-13.2l-40.875-0.0249c-46.502-0.0282-52.914-0.15519-55.496-1.0983-8.4315-3.08-14.839-13.037-15.445-24.002l-0.17-3.075h-14.066c-12.237 0-14.212-0.0625-15.182-0.48057-4.1804-1.8012-10.078-3.2923-14.22-3.5953-3.17-0.23193-6.2387 0.38247-9.0957 1.8211-1.155 0.58161-2.4038 1.0568-2.775 1.0561-0.6232 0-0.675-0.13653-0.675-1.762 0-2.3354 0.7112-6.2928 1.5975-8.8893 2.4077-7.0534 6.3089-11.66 12.437-14.688 2.506-1.2378 4.5489-1.8546 8.0155-2.4198 4.0505-0.66045 43.217-0.642 46.032 0.0216 9.266 2.184 16.182 12.23 17.288 25.111l0.1996 2.325h13.165 13.165v-13.291-13.291l-3.0421-1.125c-5.5173-2.0404-8.8667-2.716-13.458-2.7146-4.3837 0-6.3198 0.46077-8.7682 2.081-0.6154 0.40728-1.479 0.74049-1.919 0.74049h-0.8001l0.1725-2.925c0.46-7.8043 4.059-15.354 9.375-19.667 2.3459-1.9033 6.5233-3.9194 9.8898-4.7731 2.5097-0.63639 3.3239-0.68466 11.55-0.68466 7.7574 0 9.0537 0.0675 10.5 0.54651 6.8069 2.2546 12.483 9.1498 14.935 18.142l0.794 2.9117 0.1013 17.025 0.1013 17.025 18.059 5e-3c20.05 6e-3 20.562 0.0462 24.359 1.9271 6.696 3.3165 11.68 10.985 13.19 20.293 0.3683 2.2712 0.4583 5.8649 0.4593 18.344v15.519l14.325 0.093 14.325 0.093 3.9 1.3962c8.8609 3.1722 14.761 3.3731 20.1 0.6845 1.155-0.5816 2.4231-1.0568 2.818-1.0561 0.7178 0 0.718 0 0.5195 2.6312-0.8126 10.764-6.1136 19.092-14.635 22.992-3.2702 1.4965-8.1626 2.5583-11.853 2.5724l-1.5507 0.01-0.1094 5.325c-0.093 4.525-0.2056 5.5836-0.7502 7.0462-3.1532 8.4683-12.993 14.795-24.014 15.439l-3.075 0.1799v13.305 13.305h32.487c28.099 0 32.728 0.062 34.275 0.4565 5.6951 1.454 10.448 5.6348 13.634 11.994 2.1723 4.3354 3.6041 9.9455 3.6041 14.122v1.3283h27.846 27.846l3.1927 1.2031c5.5917 2.1072 9.0593 2.8198 13.715 2.8184 4.3837 0 6.3198-0.4608 8.7682-2.081 0.6154-0.4073 1.4797-0.7405 1.9207-0.7405h0.8017l-0.1886 2.925c-0.6573 10.191-5.8187 18.551-13.852 22.436-3.5253 1.7047-6.8411 2.5135-11.672 2.847-2.1607 0.1491-16.18 0.2759-31.154 0.2817l-27.224 0.012v13.896 13.896l-1.2283 3.2596c-1.4809 3.9296-2.5954 8.6888-2.8451 12.148-0.233 3.23 0.373 6.2792 1.8186 9.15 0.5816 1.155 1.0569 2.4038 1.0561 2.775 0 0.6359-0.1187 0.6735-2.0263 0.648-1.1138-0.015-2.9924-0.2027-4.1748-0.4172zm-50.2-70.206v-13.35h-27.15-27.15v13.35 13.35h27.15 27.15zm261.83 13.982c-4.3904-1.4403-7.8094-4.9918-9.085-9.4369-0.384-1.3382-0.4773-2.6208-0.3931-5.4 0.1055-3.4799 0.1603-3.7473 1.2103-5.9055 3.542-7.2803 12.719-10.209 20.338-6.4904 10.518 5.1336 10.342 21.361-0.2878 26.542-2.2095 1.077-2.3484 1.1036-6.1605 1.1785-3.1585 0.062-4.2272-0.031-5.6214-0.4881zm-111.53-27.898c-6.415-2.074-10.165-7.2887-10.165-14.134 0-8.6415 6.1061-14.7 14.815-14.7 6.1038 0 10.823 2.8601 13.309 8.0656l1.0909 2.2844v4.35 4.35l-1.0909 2.2844c-1.8356 3.8439-5.0868 6.5554-9.1196 7.6058-2.4002 0.6251-6.739 0.5732-8.8395-0.1059zm-40.763-28.426c-6.3001-2.6031-13.815-3.7099-18.185-2.6783-1.154 0.2724-2.9473 0.9621-3.9853 1.5327-1.038 0.5705-2.1718 1.0373-2.5195 1.0373-0.6142 0-0.6273-0.092-0.4624-3.225 0.366-6.9558 3.3422-13.761 7.9234-18.118 4.3167-4.1051 9.9583-6.3961 16.667-6.768l3.225-0.1789v-4.4867c0-3.1092 0.1455-5.0527 0.4737-6.3301 2.4279-9.4493 12.6-16.291 25.527-17.168 3.0304-0.2058 3.0692-0.1998 5.8176 0.9002 6.7485 2.7011 14.025 3.7848 18.43 2.745 1.1539-0.2724 2.9473-0.962 3.9853-1.5326 1.038-0.5705 2.1703-1.0374 2.5163-1.0374 0.6075 0 0.6239 0.1051 0.4791 3.075-0.3424 7.0269-3.4051 13.994-8.0992 18.426-4.224 3.9876-9.8506 6.2411-16.505 6.61l-3.225 0.1788v4.4868c0 5.0167-0.3662 6.9772-1.8588 9.9493-3.574 7.1169-12.01 12.216-22.13 13.376-4.1077 0.4707-5.2982 0.3538-8.0743-0.7933zm-31.886-27.563c-12.19-2.4277-19.713-10.51-21.219-22.796-0.2201-1.7962-0.3311-12.366-0.3317-31.575v-28.875l-12.825-0.0249c-18.516-0.0359-25.279-0.30651-27.446-1.0983-6.7563-2.468-12.303-9.353-14.513-18.015-1.5769-6.18-1.7139-18.126-0.2577-22.464 2.6425-7.872 10.598-13.686 21.256-15.535 3.7181-0.645 15.529-0.64872 18.048-6e-3 5.6951 1.454 10.448 5.6348 13.634 11.994 2.1723 4.3354 3.6041 9.9454 3.6041 14.122v1.3283h13.328 13.328l0.8915-2.325c3.1194-8.1346 3.9256-14.94 2.3309-19.675-0.4353-1.2927-1.1262-2.8427-1.5352-3.4446s-0.7436-1.4005-0.7436-1.7747c0-0.63837 0.1221-0.68037 1.9779-0.68037 2.5559 0 7.4104 0.99483 10.299 2.1105 8.2439 3.1843 13.795 9.8192 15.427 18.439 0.25 1.32 0.5483 3.5609 0.6632 4.9798l0.2087 2.5798 3.0045 1.1111c5.4792 2.0263 8.8372 2.7021 13.42 2.7008 4.3837 0 6.3198-0.46077 8.7682-2.081 0.6154-0.40728 1.4797-0.74049 1.9207-0.74049h0.8017l-0.1886 2.925c-0.6573 10.191-5.8187 18.551-13.852 22.436-5.6639 2.7389-9.116 3.113-28.875 3.1288l-13.276 0.0106v28.02 28.02l-1.0581 2.7399c-1.2429 3.2182-2.3958 7.8583-2.8257 11.373-0.4947 4.0433 0.2812 8.1067 2.0935 10.964 0.4897 0.7722 0.8903 1.6693 0.8903 1.9935 0 0.5408-0.205 0.5873-2.475 0.5614-1.3612-0.016-3.3743-0.2072-4.4735-0.4261zm281.15 0.2415c-13.424-2.3461-21.733-11.412-22.416-24.457l-0.1684-3.2195-2.3325-0.8995c-4.9707-1.9169-11.115-3.3143-14.533-3.3051-2.3659 0.01-5.5164 0.7895-7.8 1.9391-1.155 0.5814-2.4236 1.0565-2.8192 1.0558-0.7175 0-0.7188-0.01-0.5246-2.5336 1.0777-14.02 9.1661-23.257 22.094-25.229 3.9919-0.6091 15.358-0.5927 17.982 0.026 9.4249 2.2215 16.458 12.615 17.307 25.577 0.1929 2.9431 0.1765 3.0503-0.8627 5.6542-3.7629 9.4286-4.1984 17.199-1.2632 22.54 1.6036 2.9179 1.5299 3.0729-1.4389 3.0238-1.3612-0.022-2.8125-0.1-3.225-0.1719zm-740.12-56.137c-4.8734-1.2721-8.7445-5.1558-10.067-10.1-0.5394-2.0162-0.5136-6.22 0.052-8.3895 1.0567-4.0572 3.7171-7.263 7.5436-9.0901l2.3465-1.1204h4.35 4.35l2.2844 1.091c5.2055 2.4859 8.0656 7.2053 8.0656 13.309 0 8.7094-6.0585 14.815-14.7 14.815-1.2375 0-3.1385-0.2319-4.2244-0.5154zm952.51 0.1412c-5.3474-1.1517-9.7802-5.7329-10.761-11.121-0.95463-5.2432 0.33885-10.069 3.6321-13.551 2.9781-3.1489 5.8861-4.3186 10.736-4.3186 4.7156 0 7.4725 0.97275 10.397 3.6685 3.4064 3.14 4.9197 7.7897 4.3009 13.215-0.97956 8.5886-9.2487 14.058-18.305 12.108zm55.49-0.1412c-6.3709-1.663-10.476-7.2042-10.476-14.141 0-6.2698 2.8066-10.956 8.0656-13.468l2.2844-1.091h4.35 4.35l2.3465 1.1204c3.8264 1.8271 6.4868 5.0328 7.5436 9.0901 0.56508 2.1694 0.59085 6.3733 0.0514 8.3895-1.7238 6.4437-7.3403 10.615-14.292 10.615-1.2375 0-3.1384-0.2319-4.2244-0.5154zm-183.58-27.644c-4.624-0.1503-5.8371-0.28698-7.2711-0.81924-8.4567-3.1388-14.84-13.062-15.445-24.012l-0.17-3.075h-32.342c-22.171 0-32.842-0.10284-33.932-0.32703-9.1457-1.8813-16.851-12.638-17.549-24.498l-0.1809-3.075h-13.851-13.851l-3.1927-1.2031c-5.5916-2.1071-9.0593-2.8197-13.715-2.8184-4.3837 0-6.3198 0.46077-8.7681 2.081-0.6155 0.40728-1.4798 0.74049-1.9207 0.74049h-0.8018l0.1887-2.925c0.2294-3.5572 1.0185-6.9207 2.3816-10.151 3.3146-7.8558 9.4009-12.726 18.125-14.504 2.8502-0.58083 4.0512-0.61944 19.268-0.61944h16.228v-27.311-27.311l-1.3085-0.56091c-2.704-1.159-7.9487-2.6817-10.954-3.1803-5.2656-0.87345-10.018-0.21957-13.255 1.8237-0.6437 0.40638-1.5106 0.73887-1.9264 0.73887-0.6896 0-0.7558-0.11184-0.7542-1.275 0-0.70125 0.2002-2.5915 0.4428-4.2004 2.0317-13.479 11.179-21.936 24.486-22.638l3.1809-0.16779 1.1265-3.0346c3.6894-9.9389 3.8948-17.668 0.5986-22.525-0.4053-0.59721-0.7369-1.4358-0.7369-1.8636v-0.77778l2.8963 0.21261c8.1277 0.59658 15.898 4.3682 20.011 9.7135 2.7586 3.5851 4.6121 8.414 5.2606 13.706 0.227 1.8526 0.3311 16.188 0.3317 45.675v42.975h4.8221c4.3575 0 5.039 0.0728 7.0734 0.75573 7.8473 2.6342 13.715 10.623 15.52 21.13 0.2664 1.551 0.4844 3.5386 0.4844 4.4171v1.5971h55.35 55.35v-13.284-13.284l-0.975-0.38934c-4.6491-1.8565-9.3401-3.1279-13.37-3.6236-4.0797-0.50178-8.5606 0.38865-11.295 2.2445-0.5972 0.40527-1.4373 0.73686-1.8668 0.73686h-0.781l0.199-2.8298c0.5663-8.0564 4.3923-15.969 9.6931-20.045 3.5932-2.7633 8.4888-4.6481 13.746-5.2924 1.7962-0.22014 12.366-0.33117 31.575-0.33174h28.875l5e-3 -32.025c6e-3 -35.577-0.0588-34.338 2.0061-38.475 1.3292-2.6631 5.4994-7.0377 8.2451-8.6492 4.3806-2.571 8.9768-4.0268 14.546-4.6073l3.3976-0.35415v-4.6903c0-3.4144 0.13026-5.1335 0.47889-6.3197 2.4206-8.2358 10.578-14.416 21.535-16.317 1.4654-0.25419 3.3891-0.46218 4.275-0.46218h1.6107v-69.3-69.3h-13.2-13.2l-3e-3 2.925c-6e-3 8.0742-1.4041 12.138-5.663 16.462-3.4696 3.5233-8.0963 6.1056-13.473 7.5196-2.3972 0.63045-3.654 0.77262-7.1117 0.80436l-4.2 0.0386-3.3753-1.2694c-4.3377-1.6314-8.7193-2.533-12.375-2.5465-3.7527-0.0138-6.4459 0.69807-8.9947 2.3775-0.5745 0.37857-1.3508 0.68832-1.725 0.68832-0.6383 0-0.6803-0.12213-0.6803-1.9779 0-2.5559 0.9948-7.4104 2.1105-10.299 3.1847-8.245 9.8305-13.804 18.44-15.424 1.32-0.24837 3.4983-0.54594 4.8406-0.66123l2.4406-0.20964 0.14268-4.8392c0.1128-3.8266 0.27528-5.2473 0.7764-6.7893 2.839-8.7355 12.846-15.34 24.39-16.096l2.9525-0.19347 0.0787-47.28 0.0786-47.28 0.65094-1.7212c2.5898-6.8475 9.1868-12.171 18.037-14.554 2.7512-0.74096 3.3845-0.79074 11.488-0.903l8.5767-0.11882 2.3217 0.77937c7.9215 2.6592 13.779 10.607 15.591 21.154 0.44142 2.5696 0.48402 15.843 0.47997 149.54-4e-3 129.7-0.0569 146.94-0.45678 148.64-1.2083 5.1258-5.4884 10.194-11.26 13.332-4.0152 2.1833-10.084 3.7991-14.268 3.7991h-1.9107l-5e-3 4.125c-0.01 7.56-1.3068 11.009-5.839 15.525-4.8848 4.8671-10.643 7.41-18.778 8.2923l-3.2778 0.35553v13.151 13.151h13.746 13.746l3.1927 1.2031c5.5916 2.1071 9.0593 2.8197 13.715 2.8184 4.3837 0 6.3198-0.46077 8.7682-2.081 0.61542-0.40728 1.4797-0.74049 1.9207-0.74049h0.80175l-0.18201 2.925c-0.35583 5.7184-2.444 11.596-5.5967 15.755-4.2024 5.5424-11.27 9.0299-19.14 9.4447l-3.0781 0.16224 0.0781 13.358 0.0781 13.358 3.1407 1.1792c3.8287 1.4375 8.5929 2.5448 12.009 2.7914 3.23 0.23307 6.2791-0.37293 9.15-1.8186 1.155-0.58161 2.4038-1.0568 2.775-1.0561 0.62316 0 0.675 0.13653 0.675 1.762 0 2.336-0.71133 6.2934-1.5978 8.8893-3.4295 10.043-10.501 15.763-21.299 17.231-3.0675 0.41697-14.725 0.41136-16.764-8e-3 -2.7381-0.56325-6.214-2.439-8.5817-4.6311-3.8043-3.5222-6.4846-8.2433-8.2507-14.533-0.60549-2.1564-0.63903-3.0345-0.73683-19.284l-0.10245-17.025h-27.284-27.284v17.925c-0.01 19.903-0.048 20.431-1.9271 24.225-3.3165 6.696-10.985 11.68-20.293 13.19-1.5535 0.25194-3.4659 0.45864-4.2496 0.4593h-1.425v2.925c-0.01 8.0197-1.3912 12.087-5.588 16.41-4.9227 5.0709-11.781 7.9384-20.488 8.5663-4.2843 0.30897-27.175 0.31215-36.622 5e-3zm-706.12-0.45672c-8.5714-2.3734-15.154-11.607-16.57-23.242-0.5045-4.1468-0.4117-5.0285 0.8938-8.4931 2.1204-5.6268 2.825-9.0617 2.8133-13.715-0.011-4.3841-0.477-6.352-2.0759-8.7682-0.4073-0.61542-0.7405-1.4797-0.7405-1.9207v-0.80175l2.925 0.18864c10.871 0.7011 19.406 6.344 23.131 15.293 1.1398 2.738 2.1437 7.6041 2.1437 10.391v2.1386l1.3501 0.57873c2.6242 1.1248 7.9501 2.663 10.969 3.1677 5.1993 0.86937 9.972 0.20802 13.199-1.8289 0.6437-0.40638 1.5106-0.73887 1.9263-0.73887 0.6903 0 0.7555 0.11076 0.7501 1.275-0.025 5.248-2.1175 12.048-5.0203 16.312-2.4625 3.6165-6.7844 7.1214-10.512 8.5244-4.698 1.7685-5.6193 1.8912-14.912 1.9853-6.8897 0.0697-9.0268-3e-3 -10.271-0.34683zm-83.543-27.915c-2.3297-0.56484-5.4328-2.1937-7.5026-3.9382-4.9081-4.1368-8.565-11.506-9.5013-19.146-0.2201-1.7962-0.3312-12.365-0.3318-31.571l-9e-4 -28.871-1.125-0.48459c-4.1922-1.8058-10.084-3.296-14.229-3.5993-3.1701-0.23193-6.2386 0.38247-9.0957 1.8211-1.155 0.58161-2.4037 1.0568-2.775 1.0561-0.6231 0-0.675-0.13653-0.675-1.762 0-2.3354 0.7112-6.2928 1.5976-8.8893 2.4077-7.0534 6.3088-11.66 12.437-14.688 4.4841-2.215 8.3989-2.8597 17.376-2.8613 3.6631 0 7.3756 0.14595 8.25 0.32583 2.5216 0.5187 6.1826 2.4346 8.2708 4.3283 3.4921 3.167 5.8612 6.8257 7.5491 11.658 1.8407 5.2706 1.8198 4.8377 1.8198 37.704v29.939l2.3748 0.91581c5.0128 1.9332 11.145 3.3305 14.575 3.3214 2.3884-6e-3 5.5333-0.79329 7.7397-1.9366 1.1218-0.58131 2.39-1.0569 2.8181-1.0569h0.7783l-0.1985 2.6299c-0.5172 6.8514-3.079 13.25-7.0005 17.486-4.0033 4.324-9.0416 6.7963-15.837 7.771-3.1875 0.45717-15.237 0.35118-17.313-0.15234zm49.239-27.985c-4.8734-1.2722-8.7445-5.1559-10.067-10.1-0.5394-2.0162-0.5136-6.22 0.052-8.3895 1.0567-4.0572 3.7171-7.263 7.5436-9.0901l2.3465-1.1204h4.35 4.35l2.2844 1.091c5.2055 2.4859 8.0656 7.2053 8.0656 13.309 0 8.7094-6.0585 14.815-14.7 14.815-1.2375 0-3.1385-0.23193-4.2244-0.5154zm68.88 0.21558c-13.84-2.0154-22.384-11.109-23.221-24.716l-0.1846-3-5.4-0.17139c-6.2256-0.19758-7.3351-0.49896-11.095-3.014-3.6072-2.4127-6.5444-6.0899-8.5959-10.762-2.3694-5.3957-3.0862-10.179-2.8881-19.272 0.1125-5.1639 0.2291-6.3757 0.773-8.0315 2.3688-7.2122 9.0622-12.681 18.634-15.225 2.6362-0.70056 3.5128-0.77424 10.672-0.89703 6.4769-0.11109 8.1527-0.0514 9.8791 0.35214 9.4115 2.1997 16.328 12.169 17.442 25.141l0.1993 2.322 28.09 0.091 28.09 0.091 4.35 1.5368c8.967 3.168 15.937 3.2441 20.718 0.22617 0.6437-0.40638 1.5106-0.73887 1.9264-0.73887 0.6903 0 0.7554 0.11076 0.75 1.275-0.025 5.248-2.1174 12.048-5.0202 16.312-4.4948 6.6011-11.136 9.9722-20.924 10.622-2.31 0.1533-16.371 0.28161-31.247 0.28515l-27.047 6e-3 -0.8943 2.475c-3.7837 10.471-4.0234 17.609-0.7655 22.794 0.3867 0.61548 0.7031 1.4592 0.7031 1.875 0 0.71661-0.082 0.75408-1.575 0.7194-0.8663-0.0201-2.3823-0.15414-3.369-0.29784zm183.12-0.21558c-6.3709-1.6631-10.476-7.2043-10.476-14.141 0-6.2723 2.7833-10.946 8.0035-13.438l2.3465-1.1204h4.35 4.35l2.2845 1.091c5.259 2.5114 8.0655 7.1978 8.0655 13.468 0 8.5596-6.1152 14.657-14.7 14.657-1.2375 0-3.1384-0.23193-4.2243-0.5154zm150.02-1.1195c-0.1609-0.42324-0.1315-0.81225-0.2926-1.1864-0.1828-0.42468-0.5106-0.77127-0.75-1.1668-0.2618-0.43268-0.7189-0.81408-0.75-1.3189-0.057-0.92784 0.8373-1.6752 1.071-2.5749 0.3157-1.2152 0.6478-2.5057 0.429-3.742-0.256-1.447-0.7242-3.1694-1.9745-3.9415-0.2908-0.1796-0.7838-0.24171-1.0255 0-1.4849 1.4849 0 4.2 0 6.3s1.5616 4.8959 0 6.3c-4.9159 4.4202-14.914 2.4377-19.721-2.1-0.2764-0.26089-0.148-0.74681-0.186-1.125-0.1734-1.7264-0.012-3.4759-0.1893-5.2018-0.1531-1.4862-0.016-3.1189-0.7533-4.4186-0.1623-0.28619-0.4383-0.53632-0.75-0.64173-0.2372-0.0802-0.5069-0.0182-0.75 0.0417-0.2668 0.0657-0.6014 0.11065-0.75 0.3417-0.7978 1.2401 0 2.9491 0 4.4237 0 1.4746 0.9705 3.3135 0 4.4237-0.3155 0.36085-0.9462 0.21441-1.425 0.19218-2.866-0.13308-6.2391-0.0334-8.3867-1.9359-1.163-1.0303-1.2115-2.8748-1.5883-4.3821-0.3281-1.3126-0.089-2.7553-0.5754-4.0179-0.3268-0.84883-1.2589-1.3932-1.5246-2.2631-0.1849-0.60536 0.3015-1.3423 0-1.8989-3.497-6.4563-11.474-9.7406-18.45-12.035-3.3224-1.0928-6.9916-0.29116-10.475-0.6033-4.1226-0.3694-8.6722 0.44275-12.326-1.5013-17.174-9.1365-32.343-25.556-38.223-44.099-1.1847-3.736-0.031-7.9698 1.1737-11.699 0.2147-0.66461 0.6897-1.2149 1.05-1.8132 0.4843-0.8042 1.3557-1.4588 1.4939-2.3874 3.8383-25.796 3.81-65.823-20.394-75.534-0.6864-0.27538-1.1859 0.95004-1.8984 1.1482-5.0689 1.4099-11.27 2.6803-15.784-0.0219-4.0866-2.4461-6.8718-7.8222-6.7677-12.584 0.114-5.2124 4.1518-9.9243 8.0035-13.438 0.6403-0.58416 1.5012-0.92897 2.3465-1.1204 1.4142-0.32031 2.9041-0.1092 4.35 0 2.1531 0.16261 4.3687 0.25248 6.4042 0.9729 1.0743 0.38021 1.8424 1.4609 2.9504 1.727 0.6842 0.16435 1.5969 0.3616 2.1075-0.12261 1.1728-1.1122 0.4648-3.2043 0.5379-4.819 4.7488-104.83 177.35-159.52 259.4-80.812 27.122 26.015 44.351 66.605 42.357 124.78-0.093 2.6992 0.9048 5.5964-0.1045 8.1015-0.1774 0.4402-0.7459 0.62237-0.9737 1.0387-7.4861 13.685-14.36 30.032-11.488 45.364 0.062 0.33174 0.3541 0.5807 0.587 0.825 0.446 0.46794 1.0392 0.77176 1.5246 1.1987 0.3684 0.32403 0.615 0.8045 1.05 1.0315 0.3157 0.16475 0.8226-0.0771 1.05 0.19698 0.4138 0.49864-0.1253 1.3082 0 1.9439 0.1476 0.74857 0.6742 1.3799 0.8687 2.1177 0.8286 3.1431 1.2204 6.4233 1.228 9.6737 0.01 3.3902-0.3768 6.8154-1.2334 10.096-0.1994 0.76372-0.629 1.449-0.8988 2.1908-0.4659 1.2809-0.603 2.6916-1.2409 3.8961-0.2083 0.3933-0.5769 0.6803-0.8247 1.05-0.6195 0.92435-0.8534 2.1225-1.6445 2.9051-13.501 13.356-29.702 27.412-49.879 27.528-13.026 0.0749-9.6265-1.5822-13.575 0.63825-9.3678 5.268-9.1696 20.643-18.024 26.734-2.1919 1.5077-5.693 3.4555-7.7755 1.8-1.0959-0.87119 0-2.8 0-4.2s0.9899-3.21 0-4.2c-0.2417-0.24169-0.7051-0.11935-1.0254 0-0.8157 0.30397-1.6128 0.91729-1.9746 1.709-1.0012 2.1907 1.5428 5.3762 0 7.2259-4.3625 5.2299-14.87 8.0276-20.1 3.6651-1.651-1.3772 0.075-4.3013 0-6.45-0.075-2.1539 1.7052-6.448-0.45-6.45-2.0992-2e-3 -0.375 4.1836-0.45 6.2815-0.075 2.0925 0.7573 4.3294 0 6.2815-0.1536 0.39603-0.5304 0.67224-0.8594 0.94095-0.6092 0.49756-1.3437 1.0533-2.025 1.2114-5.9803 0.38249-10.59 0.27894-16.854 0.28453 0 0-0.1704-2.683-0.2156-4.0262-0.081-2.3931 0.5138-4.868-0.099-7.1828-0.3396-1.283-0.781-2.8092-1.9221-3.4869-0.2364-0.14043-0.6301-0.19798-0.825-4e-3 -1.5151 1.5078 0.027 4.2752 0 6.4125-0.031 2.4506-0.084 6.8344-0.1875 7.35l-0.1875 0.9375h-19.14l-0.2926-0.76953zm18.228-62.143c0.8176-0.039 1.5931 0.37911 2.3798 0.60489 5.149 1.4776 11.184 8.3259 15.304 4.9029 0.7089-0.58887-0.1679-1.8388-0.3464-2.7429-1.6337-8.2768-4.0613-16.389-6.6073-24.432-2.1217-6.7028-3.4501-13.881-7.2125-19.82-0.2636-0.41605-0.7295-0.66731-1.0395-1.05-0.2636-0.32542-0.4165-0.73279-0.69-1.05-0.4116-0.47741-0.7997-1.1022-1.41-1.26-0.4153-0.10737-0.881 0.0749-1.255 0.285-0.3713 0.20862-0.5988 0.60598-0.8897 0.91701-0.3339 0.35693-0.6561 0.72457-0.9819 1.0889-0.3464 0.38735-0.7667 0.72094-1.0344 1.1663-0.5067 0.84315-0.705 1.837-1.0307 2.7653-4.4326 12.634-9.7356 25.065-12.562 38.153-0.2893 1.3397-0.5111 2.7193-0.4402 4.088 0.037 0.71702-0.1051 1.6516 0.4505 2.1063 0.3497 0.2862 0.9099 0.0907 1.3555 0.0159 5.5907-0.93802 10.347-5.4687 16.009-5.7387zm-27.896-54.931c0.3117-0.0971 0.7555 0.1477 0.975-0.094 0.3857-0.42466-0.1452-1.166 0-1.721 0.2362-0.90287 0.9438-1.6114 1.3713-2.441 0.3075-0.59655 0.5651-1.2176 0.8574-1.8217 0.3433-0.70936 0.7531-1.388 1.0528-2.1168 0.394-0.95822 0.6193-1.9781 0.9738-2.9517 0.4432-1.2174 1.1158-2.3556 1.4405-3.6098 0.4359-1.6835 0.5496-3.4396 0.661-5.175 0.1878-2.9265 0.062-5.8654 0.01-8.7975-0.022-1.2081 0.5725-2.6414-0.1328-3.6225-0.176-0.24483-0.6233-0.11649-0.8463-0.31941-0.5909-0.53762-0.8298-1.3857-1.0536-2.1525-0.1723-0.59031 0.2512-1.4234-0.2074-1.8331-0.2514-0.22457-0.6955 0.1178-1.0113 0-0.4179-0.15584-0.6094-0.68261-1.0112-0.87612-11.877-5.72-25.755-6.0148-38.882-7.2239-5.5275-0.50911-11.417-1.8431-16.653 0-0.4514 0.15888-0.6866 0.69431-1.119 0.89922-1.5948 0.75574-3.4499 0.74666-5.1802 1.094-1.4433 0.28974-2.9501 0.33627-4.3384 0.82578-0.7133 0.25151-1.3254 0.72986-2.0022 1.0676-0.5676 0.28326-1.1662 0.50333-1.725 0.80355-0.818 0.4395-1.5868 0.96512-2.3748 1.4564-0.53 0.3304-1.0911 0.61767-1.5828 1.0028-0.3607 0.28255-0.6584 0.63745-0.9924 0.95118-0.3233 0.30372-0.756 0.51792-0.979 0.90141-4.7499 8.1695-7.3806 18.229-6.371 27.625 1.4648 13.632 7.6824 27.679 17.547 37.201 0.7206 0.69558 1.8226 0.83541 2.7612 1.1849 0.9349 0.34815 1.8598 1.006 2.8524 0.90615 21.244-2.137 35.576-24.81 55.96-31.163zm115.22 28.162c-0.1517-1.0474 1.9923-0.71491 2.9824-1.0887 0.6276-0.23697 1.4601-0.20439 1.875-0.73158 12.888-16.375 12.222-41.463 8.4008-61.948-0.073-0.39284-0.3758-0.70567-0.5786-1.05-0.4838-0.82134-1.0366-1.6007-1.5214-2.4214-0.2885-0.48832-0.4255-1.0856-0.825-1.4881-0.5017-0.50546-1.167-0.88837-1.8606-1.05-23.238-5.4154-49.342-4.9276-71.471 3.9973-0.4287 0.17292-0.7122 0.59043-1.051 0.90492-0.3628 0.33671-0.6986 0.70136-1.05 1.05-0.3545 0.35181-0.6151 0.83998-1.0677 1.0513-0.2958 0.13815-0.7555-0.1477-0.975 0.094-0.4664 0.5135 0.05 1.3891 0 2.081-0.05 0.69904-0.047 1.4274-0.3 2.081-0.064 0.16634-0.1941 0.29956-0.3 0.44307-0.2372 0.32139-0.7866 0.53679-0.75 0.93453 2.7177 29.516 37.75 57.452 67.385 58.022 0.4718 9e-3 1.2491-0.43163 1.1074-0.8817-1e-4 -2.5e-4 -8e-4 2.1e-4 -8e-4 -5e-5zm-284.41 61.814c-4.3904-1.4403-7.8094-4.9918-9.085-9.4369-0.384-1.3382-0.4773-2.6208-0.3931-5.4 0.1055-3.4799 0.1603-3.7473 1.2103-5.9055 5.1712-10.629 21.407-10.805 26.54-0.28773 3.7183 7.6183 0.7917 16.79-6.4905 20.34-2.2095 1.0771-2.3484 1.1037-6.1605 1.1786-3.1585 0.062-4.2272-0.0308-5.6214-0.4881zm487.82 0.11373c-10.325-2.0561-17.471-8.3033-20.176-17.637-1.3282-4.583-1.4134-7.0826-1.3058-38.309l0.1008-29.25 1.5465-4.35c3.1674-8.9088 3.2425-15.932 0.2218-20.718-0.4064-0.64374-0.7389-1.5106-0.7389-1.9264 0-0.68964 0.1119-0.75582 1.275-0.7542 0.7013 0 2.5575 0.19653 4.125 0.43458 11.451 1.739 19.37 8.5646 21.905 18.881 0.9373 3.8142 1.1717 8.4661 1.1843 23.508l0.011 13.275h13.2 13.2v-27.272-27.272l-2.175-0.90318c-4.9569-2.0584-10.107-3.175-14.625-3.1707-3.7509 4e-3 -6.1977 0.60681-8.4686 2.0882-0.6152 0.40131-1.459 0.72969-1.875 0.72969-0.7407 0-0.7564-0.0463-0.7564-2.2304 0-5.5973 2.5652-12.716 6.175-17.135 4.0649-4.9769 11.047-8.2248 18.769-8.7308l2.9562-0.19371v-13.265-13.265l-2.8822-1.1032c-3.3662-1.2884-7.9338-2.4274-11.47-2.86-4.0432-0.49467-8.1067 0.28122-10.964 2.0936-0.7722 0.48969-1.6693 0.89034-1.9935 0.89034-0.5329 0-0.5896-0.21306-0.5896-2.2168 0-4.4628 1.5682-10.093 3.9083-14.032 4.1947-7.0609 10.8-11.005 20.054-11.974 1.8608-0.19485 5.8198-0.28371 9.2238-0.20706 5.0354 0.11337 6.2672 0.23385 7.9137 0.77403 7.1875 2.358 12.622 9.0019 15.243 18.633l0.7814 2.8721 0.106 16.875 0.106 16.875h13.308 13.308l0.1094-5.325c0.093-4.525 0.2056-5.5836 0.7502-7.0462 2.5363-6.8114 9.1732-12.17 18.027-14.554 2.7513-0.74097 3.3846-0.79074 11.488-0.903l8.5767-0.11883 2.3217 0.77937c7.9215 2.6592 13.779 10.607 15.591 21.154 0.66648 3.8798 0.68448 15.604 0.0279 18.176-2.1881 8.5707-11.19 15.347-22.474 16.916-1.5173 0.21102-12.421 0.32172-31.692 0.32172h-29.378v32.487c0 35.597 0.074 34.04-1.791 37.863-3.2783 6.7207-11.669 12.011-21.139 13.328-1.4 0.19473-8.3879 0.32172-17.702 0.32172h-15.389l-1.1031 2.8822c-1.2765 3.3349-2.4273 7.9302-2.8468 11.368-0.498 4.0812 0.2821 8.2315 2.0803 11.067 0.4897 0.77217 0.8904 1.6692 0.8904 1.9935 0 0.54075-0.2051 0.58725-2.475 0.56139-1.3613-0.0156-3.3744-0.20727-4.4736-0.42618zm-726.1-55.68c-13.84-2.0154-22.384-11.109-23.221-24.716l-0.1846-3-19.35-0.15c-17.44-0.13518-19.478-0.20133-20.649-0.67008-8.2114-3.2882-13.833-11.035-15.51-21.373-0.6202-3.8242-0.6104-15.569 0.015-18.019 2.1881-8.5707 11.19-15.347 22.474-16.916 3.0139-0.41919 14.684-0.4155 16.73 5e-3 5.261 1.0822 10.643 5.5126 13.841 11.394 2.1833 4.0152 3.7991 10.084 3.7991 14.268v1.9107l4.125 5e-3c2.443 3e-3 4.9813 0.1842 6.225 0.44418 5.6029 1.1712 11.094 5.8188 14.177 12.001 2.0671 4.1438 3.1864 8.4709 3.5577 13.753 0.188 2.6738 0.1532 2.9114-0.7796 5.323-3.9348 10.173-4.3095 18.219-1.0863 23.325 0.4296 0.68046 0.781 1.5774 0.781 1.9931 0 0.71661-0.082 0.75408-1.575 0.7194-0.8662-0.0201-2.3823-0.15414-3.3689-0.29784zm113.69-0.8748c-5.2913-2.0489-8.9935-2.8114-13.65-2.8112-4.384 1.2e-4 -6.3189 0.45912-8.7682 2.08-0.6154 0.40728-1.479 0.74049-1.919 0.74049h-0.8l0.1724-2.925c0.46-7.8043 4.059-15.354 9.375-19.667 2.3204-1.8825 6.524-3.921 9.7398-4.7232 1.6369-0.40833 3.9466-0.69048 6.45-0.78795l3.9-0.15183 2.7848 1.0858c3.2106 1.2518 7.8575 2.4182 11.315 2.8401 4.0147 0.4899 8.5541-0.40095 11.299-2.2174 0.6261-0.4143 1.4112-0.75327 1.7447-0.75327 0.5533 0 0.6064 0.19224 0.6064 2.1949 0 6.0085-2.7804 13.583-6.4955 17.695-4.3432 4.8074-9.8494 7.4915-17.005 8.2894-4.4527 0.49653-5.4288 0.39741-8.7497-0.88851zm84 0c-5.2914-2.0489-8.9935-2.8114-13.65-2.8112-4.3839 1.2e-4 -6.3189 0.45912-8.7681 2.08-0.6155 0.40728-1.479 0.74049-1.9191 0.74049h-0.8l0.1724-2.925c0.3436-5.8281 2.7001-12.217 6.001-16.27 4.3405-5.3292 10.946-8.4671 18.769-8.916l3.1048-0.17817 0.5418-1.264c1.1414-2.6628 2.6659-7.9242 3.1612-10.91 0.8734-5.2656 0.2196-10.018-1.8237-13.255-0.4064-0.64374-0.7389-1.5106-0.7389-1.9264 0-0.68964 0.1119-0.75582 1.275-0.7542 2.154 3e-3 6.8526 0.82725 9.3113 1.6335 10.652 3.4928 16.923 11.841 17.529 23.334l0.1696 3.2194 14.433 0.0951 14.433 0.0951 3.9 1.3881c7.2187 2.5693 12.92 3.0984 17.35 1.6099 1.2927-0.43437 2.8428-1.1244 3.4447-1.5334 0.6019-0.40902 1.4005-0.74364 1.7747-0.74364 0.6383 0 0.6803 0.12213 0.6803 1.9779 0 2.5559-0.9948 7.4104-2.1105 10.299-2.985 7.7281-8.8577 13.008-16.688 15.005-4.5109 1.1503-6.6327 1.2188-36.993 1.1944l-29.558-0.0237-3-1.1617zm630.18 0.88473c-4.0086-0.78726-8.0071-3.9325-9.8717-7.765-1.05-2.1581-1.1048-2.4256-1.2103-5.9055-0.084-2.7792 0.01-4.0618 0.3931-5.4 0.9496-3.3091 2.961-5.9988 5.9228-7.9202 2.5744-1.6702 4.8285-2.1736 9.1156-2.036 3.3848 0.10866 3.6842 0.17097 5.8285 1.2131 4.9768 2.4187 8.0895 7.5263 8.0895 13.274 0 9.8522-8.3391 16.49-18.268 14.54zm-660.63-28.088c-2.4966-0.43635-5.8822-1.4891-8.053-2.5042-7.1553-3.3457-11.575-8.6833-13.567-16.384-0.8222-3.1786-1.2774-9.8365-0.744-10.882 1.398-2.7399 3.0351-8.5844 3.6164-12.911 0.6285-4.6784-0.1525-9.0421-2.1479-12.001-0.3875-0.57456-0.7046-1.3508-0.7046-1.725 0-0.63837 0.1222-0.68037 1.9779-0.68037 2.556 0 7.4104 0.99483 10.299 2.1105 8.2882 3.2014 13.791 9.8103 15.449 18.553 0.262 1.3824 0.5629 3.833 0.6686 5.4458 0.189 2.884 0.1739 2.978-0.9172 5.704-2.703 6.7535-3.7871 14.029-2.747 18.435 0.2724 1.154 0.9621 2.9473 1.5327 3.9853 1.6049 2.9199 1.5314 3.0748-1.4377 3.0258-1.3612-0.0225-2.8125-0.0998-3.225-0.17193zm-124.12-28.15c-6.4336-1.7326-10.545-7.2835-10.545-14.238 0-6.9513 4.1717-12.568 10.615-14.292 2.0162-0.5394 6.2201-0.51363 8.3895 0.0515 4.0327 1.0504 7.2839 3.7619 9.1196 7.6057l1.0909 2.2844v4.35 4.35l-1.0909 2.2844c-1.8357 3.8438-5.0869 6.5553-9.1196 7.6057-2.1726 0.56589-6.354 0.5646-8.4601-3e-3zm56.23 0.13383c-2.0361-0.47916-4.3987-1.7928-6.1478-3.4182-3.2037-2.9774-4.5618-6.2381-4.5618-10.953 0-4.5982 1.3428-7.9226 4.35-10.769 2.9832-2.8238 5.8981-3.9309 10.35-3.9309 4.452 0 7.3669 1.1071 10.35 3.9309 3.0072 2.8466 4.35 6.1709 4.35 10.769s-1.3428 7.9226-4.35 10.769c-3.0377 2.8755-5.9305 3.9514-10.488 3.9007-1.4916-0.0165-3.2252-0.1509-3.8524-0.2985zm139.62-0.1461c-3.946-1.0612-7.1635-3.7644-8.9609-7.5287l-1.1205-2.3465v-4.35-4.35l1.1205-2.3465c2.4926-5.2202 7.1658-8.0035 13.438-8.0035 8.5596 0 14.169 7.7977 14.657 14.7 0.4185 5.9206-4.1401 12.551-10.673 14.252-2.1485 0.55962-6.3284 0.54615-8.4607-0.0273zm380.37-0.0181c-2.0711-0.92577-6.0941-2.1949-8.8514-2.7923-6.1939-1.3419-10.266-1.0505-14.399 1.0304-1.155 0.58161-2.4037 1.0568-2.775 1.0561-0.6231 0-0.675-0.13653-0.675-1.762 0-5.7151 2.7439-13.417 6.2281-17.481 4.1744-4.8698 8.8299-7.3754 15.822-8.5154 1.485-0.24213 3.4088-0.44079 4.275-0.44145h1.575l0.01-4.125c0.01-5.095 0.474-7.419 2.142-10.648 2.8848-5.5851 9.0022-9.9688 16.98-12.168l2.9226-0.80568 31.825-0.0843 31.825-0.0843 2.7601 1.066c3.2061 1.2382 7.8675 2.4026 11.291 2.8203 4.0147 0.4899 8.5541-0.40095 11.299-2.2174 0.626-0.4143 1.4112-0.75327 1.7447-0.75327 0.5539 0 0.6064 0.19215 0.6064 2.2168 0 4.4628-1.5682 10.093-3.9083 14.032-4.1152 6.927-10.704 10.939-19.592 11.93-1.8407 0.20526-13.177 0.3207-31.491 0.3207h-28.615l-0.1883 4.725c-0.2922 7.3296-1.5256 10.419-5.8986 14.775-4.456 4.4386-10.029 7.0502-17.257 8.0869-3.1091 0.44592-6.4245 0.36804-7.65-0.17976zm-617.36-28.477c-6.1792-2.6065-13.792-3.7368-18.185-2.7-1.1539 0.2724-2.9473 0.96207-3.9853 1.5326-1.038 0.57054-2.2239 1.0374-2.6353 1.0374-0.7409 0-0.7463-0.0195-0.572-2.025 0.2995-3.4471 0.7881-6.1347 1.5285-8.4073 3.5023-10.751 11.788-17.041 23.287-17.679l3.225-0.1788v-4.542c0-5.0657 0.3526-6.9666 1.8322-9.8783 2.6658-5.246 7.9464-9.4537 14.782-11.779 2.9036-0.9876 5.8335-1.5452 9.3867-1.7865 3.0087-0.20433 3.0871-0.19263 5.7 0.85017 9.4235 3.7608 17.195 4.1958 22.535 1.2612 1.037-0.56988 2.1684-1.0361 2.5143-1.0361 0.6075 0 0.6239 0.10509 0.4792 3.075-0.3425 7.0269-3.4051 13.995-8.0992 18.426-4.1948 3.9601-9.8966 6.2437-16.505 6.61l-3.225 0.1788v4.3801c-0.01 5.0999-0.4263 7.2992-1.9542 10.207-4.0646 7.7351-13.39 12.851-24.358 13.362-3.18 0.14835-3.2742 0.13344-5.746-0.90921zm69.896 0.74556c-4.0086-0.78726-8.0072-3.9325-9.8718-7.765-1.0499-2.1581-1.1047-2.4256-1.2102-5.9055-0.084-2.7792 0.01-4.0618 0.3931-5.4 0.9495-3.3091 2.9609-5.9988 5.9227-7.9202 2.5745-1.6702 4.8286-2.1736 9.1156-2.036 3.3848 0.10866 3.6842 0.17097 5.8286 1.2131 4.9768 2.4187 8.0895 7.5263 8.0895 13.274 0 9.8522-8.3391 16.49-18.268 14.54zm55.753-0.0843c-5.3474-1.1518-9.7802-5.7329-10.761-11.121-0.9546-5.2432 0.3389-10.069 3.6322-13.551 2.9841-3.1553 5.8836-4.3186 10.764-4.3186 4.9471 0 8.2185 1.2806 11.011 4.3105 2.6957 2.9245 3.6684 5.6814 3.6684 10.397 0 4.8502-1.1697 7.7582-4.3186 10.736-3.5524 3.3597-8.7504 4.6772-13.996 3.5474zm62.715-0.0592c-5.748-1.239-11.061-5.8194-14.246-12.282-2.0673-4.1944-3.4537-9.793-3.4537-13.947v-1.454l-5.325-0.10938c-4.5249-0.0929-5.5835-0.20562-7.0461-0.75021-6.7993-2.5318-12.306-9.3715-14.513-18.027-1.0527-4.1284-1.2975-8.5646-1.3075-23.687l-0.01-13.275h-13.746-13.746l-3.1927-1.2031c-5.5917-2.1071-9.0593-2.8197-13.715-2.8184-4.3837 0-6.3198 0.46077-8.7682 2.081-0.6155 0.40728-1.4791 0.74049-1.919 0.74049h-0.8l0.1724-2.925c0.3435-5.8281 2.7001-12.217 6.001-16.27 4.3338-5.321 10.946-8.4668 18.739-8.9144l3.075-0.17664v-13.307-13.307h-18.285c-12.025 0-18.83-0.11196-19.875-0.32703-0.8744-0.17985-2.6698-0.84351-3.9898-1.4747-7.947-3.8004-13.65-14.269-13.65-25.057 0-2.464 0.1205-3.0926 1.0581-5.5205 1.2778-3.3084 2.4297-7.9783 2.8043-11.367 0.4556-4.1228-0.402-8.4711-2.2091-11.202-0.4143-0.62604-0.7533-1.4112-0.7533-1.7447 0-0.55386 0.1921-0.60642 2.2168-0.60642 4.4627 0 10.093 1.5682 14.032 3.9083 7.1677 4.2582 11.071 10.903 12.004 20.433l0.3482 3.5584h27.099 27.1v-13.35-13.35h-13.984-13.984l-2.8915-1.0847c-9.6254-3.6108-17.279-3.847-22.268-0.68697-0.7569 0.47943-1.6878 0.87168-2.0686 0.87168-0.6883 0-0.6913-0.0174-0.5101-2.925 0.6748-10.827 6.361-19.536 15.142-23.192 5.0208-2.0902 5.8663-2.1704 24.274-2.3037l16.561-0.11991 0.8837-2.3047c3.0822-8.0383 3.8977-14.956 2.3176-19.663-0.4324-1.2881-1.1208-2.8345-1.5298-3.4364s-0.7436-1.4005-0.7436-1.7747c0-0.63837 0.1221-0.68037 1.9779-0.68037 2.5559 0 7.4104 0.99483 10.299 2.1105 8.1554 3.1502 13.421 9.3459 15.411 18.134 0.5675 2.5057 0.6215 3.9285 0.7327 19.28l0.1199 16.575h4.8018c4.3357 0 5.0202 0.0733 7.0529 0.75573 7.8796 2.645 13.693 10.596 15.542 21.259 0.2542 1.4654 0.4622 3.3725 0.4622 4.238v1.5738l1.4342 0.61698c2.3745 1.0215 6.012 2.1719 8.7409 2.7646 6.0959 1.3238 9.972 1.0721 14.021-0.91017 1.3451-0.65862 2.7288-1.1975 3.075-1.1975 0.5782 0 0.6293 0.16791 0.6293 2.0668 0 4.0415-1.4285 9.4659-3.4718 13.183-2.941 5.3505-7.0148 8.9168-12.578 11.011-4.5582 1.7157-4.653 1.7234-22.876 1.8543l-16.875 0.12126v13.31 13.31l2.325 0.89157c8.1346 3.1193 14.94 3.9256 19.675 2.3308 1.2927-0.43533 2.8427-1.1262 3.4446-1.5352 0.6019-0.40902 1.4005-0.74364 1.7747-0.74364 0.6384 0 0.6804 0.12213 0.6804 1.9779 0 1.0878-0.2773 3.3386-0.6162 5.0018-1.1264 5.5272-3.182 9.8079-6.3955 13.318-4.3416 4.7426-9.607 7.137-17.505 7.9602l-3.3836 0.35268v13.145 13.145l18.075 5e-3c20.388 6e-3 20.491 0.015 24.598 2.1506 5.6196 2.9221 9.9893 9.0206 12.16 16.972 0.7816 2.8622 0.7983 3.112 0.8072 12.073 0.01 8.9103-0.01 9.1956-0.6936 10.891-3.292 8.1581-12.045 13.94-23.004 15.195-3.9142 0.44841-13.376 0.35547-15.743-0.15462zm-232.37-28.441c-2.4996-0.92931-3.6647-1.6999-5.4925-3.6326-5.3617-5.6692-5.2385-15.354 0.2655-20.858 5.5147-5.5147 15.189-5.6276 20.881-0.24378 3.1489 2.9781 4.3186 5.8861 4.3186 10.736 0 2.0347-0.1731 3.7916-0.4756 4.828-1.2843 4.3997-4.7718 7.9479-9.1517 9.3111-2.7158 0.84528-7.8828 0.77502-10.346-0.14067zm140.72 0.30219c-4.8765-1.6072-8.3571-5.2198-9.5901-9.9536-0.5651-2.1694-0.5909-6.3733-0.052-8.3895 1.7238-6.4437 7.3403-10.615 14.292-10.615 8.5848 0 14.7 6.0972 14.7 14.657 0 6.2698-2.8065 10.956-8.0655 13.468-2.2267 1.0634-2.383 1.0927-6.1845 1.1602-2.5964 0.0462-4.3011-0.0629-5.1-0.32616zm783.28-0.30219c-2.4995-0.92931-3.6646-1.6999-5.4925-3.6326-6.6233-7.0032-4.5911-19.331 3.8673-23.459 9.4037-4.5898 20.458 1.0001 21.589 10.917 0.61878 5.4255-0.89448 10.075-4.3009 13.215-2.9632 2.7314-5.6822 3.6756-10.519 3.6528-2.6829-0.0126-3.6706-0.14577-5.1436-0.69342zm-950.62-27.52c-4.6505-1.0944-9.0526-5.3945-10.247-10.009-0.593-2.2915-0.593-6.4324 0-8.7239 0.8605-3.3253 3.5311-6.741 6.7373-8.6169 3.9474-2.3097 11.053-2.3097 15 0 3.2062 1.876 5.8768 5.2917 6.7373 8.6169 0.5941 2.2957 0.5927 6.4367 0 8.7239-1.1881 4.5625-5.0972 8.515-9.6776 9.7852-2.1428 0.59418-6.4906 0.70821-8.5473 0.22422zm314.56-0.0905c-9.6838-2.4404-17.165-13.964-17.165-26.44 0-2.464 0.1205-3.0926 1.0582-5.5205 1.2777-3.3084 2.4297-7.9783 2.8042-11.367 0.4556-4.1228-0.4019-8.4711-2.2091-11.202-0.4143-0.62604-0.7533-1.4112-0.7533-1.7447 0-0.55386 0.1922-0.60642 2.2169-0.60642 4.4628 0 10.093 1.5682 14.032 3.9083 7.1801 4.2656 11.018 10.813 12.029 20.519l0.3723 3.577 3.1408 1.1786c3.8299 1.4372 8.5942 2.5443 12.009 2.7908 3.23 0.23307 6.2792-0.37293 9.15-1.8186 1.155-0.58161 2.4038-1.0568 2.775-1.0561 0.6232 0 0.675 0.13653 0.675 1.762 0 3.8904-1.3244 9.0242-3.3804 13.103-3.2257 6.3995-9.1847 10.888-16.72 12.595-3.0498 0.69072-17.641 0.92532-20.035 0.32211zm363.83-0.0557c-2.3668-0.62442-4.9775-1.9742-7.0398-3.6396-4.9855-4.0262-8.7609-11.396-9.7594-19.051-0.2089-1.6018-0.2892-8.2388-0.226-18.684l0.098-16.2 1.3969-3.9c3.1728-8.8586 3.3739-14.76 0.6851-20.1-0.5816-1.155-1.0568-2.4237-1.0561-2.8192 0-0.71751 0.01-0.7188 2.5335-0.52464 10.465 0.80442 18.619 5.7283 22.667 13.688 1.6641 3.2721 2.9947 8.9537 2.9991 12.806v1.5507l5.325 0.10938c4.5794 0.094 5.5741 0.20196 7.1046 0.77079 6.7794 2.5197 12.238 9.3198 14.455 18.007 1.399 5.4828 1.7029 17.715 0.5385 21.677-0.9232 3.1411-2.5064 5.6863-5.2157 8.3851-4.4559 4.4386-10.029 7.0502-17.257 8.0869-3.3013 0.47349-15.268 0.36132-17.25-0.16173zm105.38 0.0123c-6.4336-1.7326-10.545-7.2835-10.545-14.238 0-8.5848 6.0973-14.7 14.657-14.7 6.2723 0 10.946 2.7833 13.438 8.0035l1.1204 2.3465v4.35 4.35l-1.0909 2.2844c-1.8356 3.8438-5.0868 6.5553-9.1196 7.6057-2.1726 0.56589-6.3539 0.5646-8.4601-3e-3zm84 0c-6.4336-1.7326-10.545-7.2835-10.545-14.238 0-8.5848 6.0973-14.7 14.657-14.7 6.2723 0 10.946 2.7833 13.438 8.0035l1.1204 2.3465v4.35 4.35l-1.0909 2.2844c-1.8356 3.8438-5.0868 6.5553-9.1196 7.6057-2.1726 0.56589-6.3539 0.5646-8.4601-3e-3zm-797.14-28.507c-6.1762-2.6066-13.792-3.7376-18.185-2.7005-1.1539 0.2724-2.9473 0.96207-3.9853 1.5326-1.038 0.57054-2.2239 1.0374-2.6353 1.0374-0.7409 0-0.7463-0.0195-0.572-2.025 1.0402-11.972 6.0459-19.916 15.042-23.873 3.5699-1.5702 6.1581-2.0714 10.899-2.1104l4.35-0.0358 3.456 1.2677c7.2348 2.6539 13.339 3.2561 17.794 1.7554 1.2926-0.43533 2.8427-1.1262 3.4446-1.5352 0.6019-0.40902 1.4005-0.74364 1.7747-0.74364 0.6384 0 0.6804 0.12213 0.6804 1.9779 0 2.5559-0.9948 7.4104-2.1105 10.299-1.3574 3.5141-2.9221 5.9424-5.5395 8.5969-4.7754 4.8431-10.502 7.1281-18.75 7.4822-3.0723 0.13188-3.212 0.10905-5.663-0.92531zm749.66 0.89055c-4.1889-0.7551-7.5267-2.536-10.65-5.6824-3.4821-3.508-5.742-7.6234-7.2848-13.266l-0.7991-2.9227-0.097-17.025-0.097-17.025-4.4111-5e-3c-5.1332-5e-3 -7.3252-0.42354-10.238-1.9541-4.1943-2.204-7.2903-5.5275-9.7734-10.491-2.9449-5.8871-3.7511-10.086-3.7439-19.5 0-6.7923 0.3487-8.7532 2.1412-12.223 2.2967-4.4464 7.2561-8.6131 12.897-10.835 5.5582-2.1897 9.6319-2.5659 27.942-2.5807l13.136-0.0105 0.5651-1.3184c0.9056-2.1126 2.3196-6.7324 2.8562-9.3316 1.1767-5.7001 0.8233-9.8061-1.1878-13.8-0.5817-1.155-1.0569-2.4237-1.0562-2.8192 0-0.71751 0.01-0.7188 2.5336-0.52464 12.061 0.92709 20.805 7.1907 24.152 17.3 0.7223 2.182 1.5115 6.9087 1.5142 9.0685v1.425h13.328 13.328l0.8845-2.325c3.9141-10.289 4.1817-18.027 0.796-23.016-0.4053-0.59721-0.7369-1.4358-0.7369-1.8636v-0.77778l2.8963 0.21261c8.1742 0.6 15.895 4.3655 20.066 9.7862 2.7325 3.5511 4.5537 8.3218 5.2046 13.633 0.4876 3.9786 0.4179 13.642-0.1168 16.2-0.7356 3.5191-2.3007 6.2172-5.3948 9.3-2.8768 2.8664-4.6616 4.0701-8.4877 5.7243-5.8381 2.5241-8.7025 2.8238-26.993 2.8249h-14.775v13.211 13.211l1.425 0.61695c6.7258 2.912 14.816 4.216 19.423 3.1307 1.1539-0.27183 2.9473-0.96105 3.9853-1.5316 1.038-0.57054 2.1703-1.0374 2.5163-1.0374 0.6075 0 0.6238 0.10509 0.4791 3.075-0.3425 7.0269-3.4051 13.995-8.0992 18.426-4.1948 3.9601-9.8966 6.2437-16.505 6.61l-3.225 0.1788v4.4868c0 5.0943-0.3667 6.9937-1.9495 10.097-3.1502 6.1771-9.9239 10.76-18.9 12.789-1.5062 0.34032-4.1784 0.50547-9.45 0.5841-4.0425 0.0603-7.6875 0.0488-8.1-0.0255zm76.232-0.14556c-4.0086-0.78726-8.0071-3.9325-9.8717-7.765-1.05-2.1581-1.1048-2.4256-1.2103-5.9055-0.084-2.7792 0.01-4.0618 0.3931-5.4 0.9496-3.3091 2.961-5.9988 5.9228-7.9202 2.5744-1.6702 4.8285-2.1736 9.1156-2.036 3.3848 0.10866 3.6842 0.17097 5.8285 1.2131 4.9768 2.4187 8.0895 7.5263 8.0895 13.274 0 9.8522-8.3391 16.49-18.268 14.54zm-869.91-28.585c-2.4996-0.92931-3.6647-1.6999-5.4925-3.6326-5.3617-5.6692-5.2385-15.354 0.2655-20.858 5.5147-5.5147 15.189-5.6276 20.881-0.24378 3.1489 2.9781 4.3186 5.8861 4.3186 10.736 0 2.0347-0.1731 3.7916-0.4756 4.828-1.2843 4.3997-4.7718 7.9479-9.1517 9.3111-2.7158 0.84528-7.8828 0.77502-10.346-0.14067zm319.67 0.11979c-9.3624-2.0085-16.044-7.4198-19.051-15.429-1.4902-3.9696-1.6985-5.5376-1.8597-14.003-0.1278-6.7139-0.075-8.2752 0.3345-9.9 2.3858-9.4653 12.239-16.278 25.053-17.323l2.5273-0.20604 0.862-2.1c1.1324-2.7588 2.2309-6.607 2.7855-9.7587 0.8999-5.1133 0.4004-9.3399-1.5158-12.827-0.5699-1.037-1.0362-2.1684-1.0362-2.5143 0-0.6075 0.1051-0.62388 3.075-0.47913 10.323 0.50307 19.256 6.3309 22.872 14.921 1.848 4.3907 2.0418 5.7293 2.1801 15.063 0.1432 9.6532 0.054 10.293-1.97 14.195-1.3887 2.6764-5.3686 6.7106-8.3081 8.4213-4.7993 2.7931-11.096 4.6015-16.096 4.6228l-1.397 6e-3 -0.9032 2.175c-2.065 4.973-3.18 10.126-3.1648 14.625 0.013 3.7534 0.6216 6.2293 2.0824 8.4686 0.4013 0.61521 0.7296 1.459 0.7296 1.875 0 0.74532-0.034 0.75612-2.325 0.7353-1.2787-0.0117-3.4725-0.26727-4.875-0.56814zm387.9 0.16896c-9.1424-2.6642-16.074-12.784-16.716-24.405l-0.17-3.075-4.3819-5e-3c-5.1019-5e-3 -7.3007-0.42606-10.209-1.9541-4.1943-2.204-7.2903-5.5275-9.7734-10.491-1.8808-3.7597-2.9391-7.1974-3.4174-11.1-0.4823-3.9359-0.4181-13.647 0.1067-16.123 1.9783-9.3357 12.54-16.838 24.686-17.536l3.075-0.17664v-83.328-83.328l-5.475-0.12161c-6.3133-0.14024-7.3503-0.41607-11.17-2.971-6.0902-4.0734-10.174-11.689-11.275-21.029-0.2008-1.703-0.2871-5.4116-0.2091-8.992 0.1128-5.176 0.2292-6.3872 0.7732-8.0436 2.8764-8.7578 12.854-15.34 24.4-16.096l2.9561-0.19373v-27.255-27.255h-14.077-14.077l-2.1977-0.87978c-4.5921-1.8383-11.076-3.3136-14.585-3.3184-2.2621-3e-3 -5.8367 0.89981-7.7977 1.9697-1.0369 0.56571-2.2182 1.0286-2.625 1.0286-0.7022 0-0.7397-0.0892-0.7397-1.7607 0-2.3354 0.7112-6.2928 1.5976-8.8893 3.0364-8.8953 8.8379-14.302 17.919-16.7 2.4916-0.65798 2.8996-0.67077 24.67-0.77381 24.414-0.11554 23.87-0.15023 27.64 1.7635 7.2975 3.7041 12.34 12.206 13.427 22.64l0.3566 3.4209h13.854 13.853l2.2163 0.91512c4.7148 1.9468 10.708 3.2871 14.666 3.28 2.9454-5e-3 5.7042-0.67785 8.0354-1.959 1.0369-0.56987 2.1683-1.0361 2.5143-1.0361 0.6075 0 0.6239 0.1051 0.4791 3.075-0.3424 7.0269-3.4051 13.995-8.0992 18.426-4.1948 3.9601-9.8966 6.2437-16.505 6.61l-3.225 0.17882v4.4868c0 5.0943-0.3667 6.9936-1.9494 10.097-3.748 7.3496-12.724 12.465-23.476 13.378l-2.475 0.21027v13.134 13.134l4.875 0.14353c3.8619 0.1137 5.2803 0.27523 6.825 0.77728 7.1912 2.3371 12.678 9.0505 15.225 18.628 0.7034 2.6452 0.7744 3.5002 0.8986 10.822 0.1146 6.757 0.06 8.2387-0.3654 9.874-2.4445 9.4016-12.272 16.198-24.984 17.278l-2.475 0.21027v27.269 27.269h4.8222c4.3575 0 5.039 0.0728 7.0733 0.75572 7.8473 2.6342 13.715 10.623 15.52 21.13 0.2665 1.551 0.4844 3.522 0.4844 4.3802v1.5602l1.4342 0.61698c2.3746 1.0215 6.0121 2.1719 8.7409 2.7646 6.0959 1.3238 9.972 1.0721 14.021-0.91017 1.3451-0.65862 2.7289-1.1975 3.075-1.1975 0.5855 0 0.6289 0.16182 0.6229 2.325-0.01 2.5865-0.7618 6.3842-1.8744 9.4338-2.4729 6.778-7.6063 12.04-14.137 14.492-4.6011 1.7273-4.6702 1.733-22.907 1.864l-16.875 0.12126v41.323 41.323l3.0421 1.125c5.5173 2.0404 8.8667 2.716 13.458 2.7146 4.3838 0 6.3199-0.46077 8.7682-2.081 0.6155-0.40728 1.4798-0.74049 1.9207-0.74049h0.8018l-0.1887 2.925c-0.6572 10.191-5.8193 18.552-13.852 22.435-4.953 2.3945-6.2457 2.6094-16.35 2.7178-6.6524 0.0714-9.1852-3e-3 -10.2-0.29841zm-734.19-27.808c-4.6505-1.0944-9.0526-5.3945-10.247-10.009-0.593-2.2915-0.593-6.4324 0-8.7239 0.8605-3.3253 3.5311-6.741 6.7373-8.6169 3.9474-2.3097 11.053-2.3097 15 0 3.2062 1.876 5.8768 5.2917 6.7373 8.6169 0.5941 2.2957 0.5927 6.4367 0 8.7239-1.1881 4.5625-5.0972 8.515-9.6776 9.7852-2.1428 0.59418-6.4906 0.70821-8.5473 0.22422zm95.291-0.11556c-13.309-2.4149-21.206-11.506-21.902-25.216l-0.1834-3.6102 1.0971-2.7742c1.3751-3.4775 2.4871-7.7853 2.9363-11.375 0.494-3.9479 0.036-6.963-1.5448-10.176-0.6619-1.3451-1.2035-2.7289-1.2035-3.075 0-0.58269 0.1654-0.62934 2.2304-0.62934 5.5973 0 12.716 2.5652 17.135 6.175 5.1562 4.2114 8.3226 11.226 8.7425 19.367l0.1801 3.4919-1.276 3.4043c-1.5277 4.0762-2.6342 8.778-2.8856 12.262-0.2331 3.23 0.3729 6.2791 1.8185 9.15 0.5816 1.155 1.0569 2.4038 1.0561 2.775 0 0.63588-0.1187 0.67344-2.0263 0.64794-1.1137-0.015-2.9924-0.20262-4.1748-0.41715zm340.7-0.0268c-1.9206-0.89841-6.0094-2.1983-8.8514-2.8141-6.1939-1.3419-10.266-1.0505-14.399 1.0304-1.155 0.58161-2.4037 1.0568-2.775 1.0561-0.6231 0-0.675-0.13653-0.675-1.762 0-2.3354 0.7112-6.2928 1.5976-8.8893 2.4077-7.0534 6.3089-11.66 12.437-14.688 3.5818-1.7693 8.5644-2.859 13.083-2.8613 2.0025 0 2.7778 0.16098 5.0263 1.0501 3.4429 1.3614 7.7354 2.4681 11.247 2.8997 3.9841 0.48963 6.9915 0.0335 10.204-1.5475 1.3451-0.66195 2.7289-1.2035 3.075-1.2035 0.5855 0 0.6289 0.16182 0.6229 2.325-0.018 6.4533-3.034 13.85-7.4936 18.379-4.6771 4.7496-10.499 7.0782-18.45 7.3797-2.9149 0.11055-3.7998 0.0431-4.65-0.35463zm68.01 0.14238c-2.036-0.47916-4.3987-1.7928-6.1477-3.4182-3.2038-2.9774-4.5619-6.2381-4.5619-10.953 0-4.5982 1.3428-7.9226 4.35-10.769 2.9832-2.8238 5.8981-3.9309 10.35-3.9309 4.452 0 7.3669 1.1071 10.35 3.9309 3.0072 2.8466 4.35 6.1709 4.35 10.769 0 4.3953-1.0981 7.334-3.8335 10.258-2.8919 3.0916-6.3164 4.4638-11.01 4.4116-1.4885-0.0165-3.2197-0.1509-3.8469-0.2985zm126.78-0.59967c-4.5626-1.8285-10.913-3.2744-14.34-3.2653-2.3659 6e-3 -5.5164 0.78954-7.8 1.9391-1.155 0.58143-2.4236 1.0565-2.8192 1.0558-0.7175 0-0.7188-7e-3 -0.5246-2.5336 1.1024-14.342 9.5688-23.681 22.994-25.365 4.3357-0.54384 6.4469-0.29499 10.95 1.2908 8.9412 3.1486 14.868 3.345 20.04 0.66414 1.1218-0.58149 2.39-1.0572 2.8181-1.0572h0.7783l-0.1985 2.6299c-0.2296 3.0408-1.0205 6.5789-2.1334 9.5434-3.7832 10.077-13.302 16.115-25.204 15.989-1.9063-0.0201-2.8442-0.20346-4.56-0.89103zm-310.13-27.306c-7.1611-1.0428-13.635-4.3894-17.449-9.0202-2.6351-3.1991-4.17-6.5486-5.2679-11.495-0.5457-2.4584-0.6132-4.1566-0.7551-18.975l-0.1557-16.275-4.2391-5e-3c-4.9136-5e-3 -7.0679-0.41832-10.015-1.921-4.1816-2.1319-7.4775-5.6916-9.9656-10.763-1.8852-3.8426-2.9065-7.4175-3.3588-11.757l-0.3531-3.3869-4.8232-0.14229c-3.8108-0.11241-5.2326-0.27531-6.7733-0.77601-7.1763-2.3323-12.684-9.0702-15.225-18.628-0.7034-2.6451-0.7746-3.5021-0.9004-10.843-0.1149-6.701-0.059-8.2746 0.3515-9.8768 2.3549-9.1919 11.853-15.931 24.19-17.165l3.5075-0.3507 1.1041-2.9854c2.0191-5.4599 2.695-8.8224 2.6936-13.401 0-4.3837-0.4607-6.3198-2.081-8.7682-0.4072-0.61542-0.7405-1.4797-0.7405-1.9207v-0.80175l2.925 0.18201c7.9036 0.49181 15.339 4.0338 19.667 9.3688 1.7746 2.1873 3.8432 6.3678 4.7453 9.5898 0.6531 2.3329 0.675 2.8792 0.7829 19.528l0.1109 17.128 18.834 0.17268 18.834 0.17267 2.3236 0.78002c7.9559 2.6707 13.758 10.579 15.615 21.283 0.3859 2.2249 0.4621 6.0691 0.4621 23.31 0 13.729-0.1095 21.179-0.327 22.236-1.8836 9.157-12.637 16.851-24.529 17.551l-3.1058 0.18276-0.5408 1.2616c-1.1405 2.6606-2.6651 7.9229-3.1602 10.907-0.8734 5.2656-0.2196 10.018 1.8237 13.255 0.4064 0.64374 0.7388 1.5106 0.7388 1.9264 0 0.71661-0.082 0.75408-1.575 0.7194-0.8662-0.0201-2.3822-0.15414-3.3689-0.29784zm168 0c-8.4562-1.2314-15.021-5.1196-19.085-11.303-1.5304-2.3288-2.3445-4.2379-3.3528-7.8622-0.5507-1.9798-0.6403-3.2844-0.7462-10.866-0.1033-7.4006-0.05-8.8603 0.3807-10.35 2.5062-8.6776 11.571-15.142 23.239-16.573 4.1413-0.50778 5.0266-0.41487 8.4931 0.89142 5.5916 2.1071 9.0593 2.8197 13.715 2.8184 4.3838 0 6.3199-0.46077 8.7682-2.081 0.6155-0.40728 1.4798-0.74049 1.9207-0.74049h0.8018l-0.1887 2.925c-0.3629 5.6273-2.2217 11.032-5.2325 15.213-4.2859 5.9524-11.33 9.5558-19.524 9.9875l-3.1048 0.16362-0.5418 1.264c-1.1414 2.6628-2.666 7.9242-3.1612 10.91-0.8734 5.2656-0.2196 10.018 1.8237 13.255 0.4064 0.64374 0.7388 1.5106 0.7388 1.9264 0 0.71661-0.082 0.75408-1.575 0.7194-0.8662-0.0201-2.3822-0.15414-3.3689-0.29784zm84 0c-8.4562-1.2314-15.021-5.1196-19.085-11.303-1.5304-2.3288-2.3445-4.2379-3.3528-7.8622-0.5507-1.9798-0.6403-3.2844-0.7462-10.866-0.1033-7.4006-0.05-8.8603 0.3807-10.35 2.5826-8.9419 11.866-15.359 24.072-16.641l3.375-0.35424v-13.106-13.106l-5.025-0.16155c-3.3181-0.10671-5.512-0.31956-6.4589-0.62673-5.8915-1.9111-10.776-6.7224-13.822-13.616-1.2813-2.8993-2.3207-7.3702-2.5101-10.798l-0.17-3.075h-13.307-13.307v4.5317c0 5.1427-0.363 7.0313-1.9494 10.142-3.1368 6.151-9.7701 10.647-18.901 12.812-1.7835 0.42282-4.5954 0.51747-18.662 0.62823l-16.562 0.13041-0.883 2.3027c-3.8473 10.034-4.1565 17.762-0.9151 22.879 0.4794 0.75696 0.8716 1.6682 0.8716 2.025 0 0.5994-0.1504 0.64875-1.9778 0.64875-2.556 0-7.4104-0.99483-10.299-2.1105-8.2258-3.1773-13.798-9.838-15.427-18.439-0.2499-1.32-0.5483-3.5609-0.6631-4.9798l-0.2087-2.5798-3.0045-1.1111c-5.4793-2.0263-8.8373-2.7021-13.42-2.7008-4.3837 0-6.3198 0.46077-8.7681 2.081-0.6155 0.40728-1.479 0.74049-1.9191 0.74049h-0.8l0.1724-2.925c0.3436-5.8281 2.7001-12.217 6.001-16.27 4.3339-5.321 10.946-8.4668 18.739-8.9144l3.075-0.17664v-13.853-13.853l1.2032-3.1927c2.1071-5.5916 2.8197-9.0593 2.8183-13.715 0-4.3837-0.4607-6.3198-2.081-8.7682-0.4072-0.61542-0.7405-1.4797-0.7405-1.9207v-0.80175l2.925 0.18201c7.9036 0.49181 15.339 4.0338 19.667 9.3688 1.7746 2.1873 3.8432 6.3678 4.7453 9.5898 0.6532 2.3333 0.675 2.8776 0.783 19.575l0.1111 17.175h13.334 13.334v-27.112-27.112l-5.025-0.16156c-3.3181-0.10669-5.512-0.31956-6.4589-0.62672-5.8915-1.9111-10.776-6.7224-13.822-13.616-1.2805-2.8973-2.3207-7.3704-2.5099-10.793l-0.1697-3.0699-33.332-0.0801-33.332-0.0801-1.7211-0.65094c-6.8349-2.585-12.305-9.3834-14.513-18.037-1.5739-6.1684-1.7138-18.126-0.2626-22.45 2.9372-8.7499 12.798-15.155 24.522-15.928l2.625-0.17312 0.01-4.3806c0.01-7.4392 1.2124-10.573 5.8361-15.181 3.104-3.0932 5.7364-4.7239 10.201-6.3197 5.7925-2.0703 5.9729-2.0829 29.558-2.0576 19.286 0.0207 21.309 0.0693 22.95 0.55191 7.3085 2.1488 13.234 8.9891 15.615 18.025 1.1826 4.4886 1.3348 7.0608 1.3348 22.567v14.783l3.975 5e-3c2.3234 3e-3 4.8476 0.18841 6.075 0.44611 8.6514 1.8164 15.555 10.46 17.39 21.774 0.2519 1.5535 0.4586 3.5155 0.4593 4.36v1.5354l2.8822 1.1032c3.3348 1.2765 7.9302 2.4272 11.368 2.8467 4.0146 0.48992 8.5541-0.40093 11.299-2.2174 0.626-0.4143 1.4111-0.75327 1.7447-0.75327 0.5533 0 0.6064 0.19224 0.6064 2.1949 0 6.0085-2.7804 13.583-6.4956 17.695-4.5224 5.0058-10.06 7.601-17.846 8.3629l-3.5584 0.34822v13.149 13.149h13.328 13.328l0.8916-2.325c2.0331-5.3021 3.0996-10.153 3.1164-14.175 0.016-3.7512-0.6959-6.4447-2.3761-8.9946-0.3785-0.57455-0.6883-1.3508-0.6883-1.725 0-0.63835 0.1221-0.68036 1.9779-0.68036 2.5559 0 7.4104 0.99482 10.299 2.1105 8.2449 3.1847 13.804 9.8305 15.424 18.439 0.2484 1.32 0.5473 3.5137 0.6643 4.875l0.2126 2.475h13.252 13.252l1.125-3.0421c2.0403-5.5173 2.716-8.8667 2.7146-13.458 0-4.3837-0.4608-6.3198-2.081-8.7682-0.4073-0.61542-0.7405-1.4797-0.7405-1.9207v-0.80175l2.925 0.18201c7.9035 0.4918 15.339 4.0338 19.667 9.3688 1.8168 2.2394 3.8801 6.4496 4.6996 9.5898 0.8849 3.3905 1.432 13.034 0.9991 17.61-0.1763 1.8643-0.5956 4.1641-0.9317 5.1107-2.9698 8.3636-12.96 14.795-23.984 15.439l-3.075 0.17986v13.305 13.305h18.482c15.859 0 18.743 0.0672 20.325 0.47361 9.4564 2.4297 16.338 12.669 17.183 25.568 0.1942 2.9644 0.1834 3.0328-0.9128 5.7718-2.7031 6.7535-3.7871 14.029-2.747 18.435 0.2724 1.154 0.9621 2.9473 1.5326 3.9853 0.5706 1.038 1.0374 2.1703 1.0374 2.5163 0 0.6075-0.1051 0.62388-3.075 0.47913-7.0269-0.34245-13.994-3.4051-18.426-8.0992-3.9617-4.1965-6.273-9.9631-6.6152-16.505l-0.1688-3.225h-13.308-13.308v4.3352c0 5.1764-0.2848 6.741-1.8079 9.9326-3.5023 7.3387-13.061 12.956-23.048 13.543l-3.1058 0.18276-0.5408 1.2616c-1.1404 2.6606-2.6651 7.9229-3.1601 10.907-0.8735 5.2656-0.2196 10.018 1.8236 13.255 0.4064 0.64374 0.7389 1.5106 0.7389 1.9264 0 0.71661-0.082 0.75408-1.575 0.7194-0.8662-0.0201-2.3823-0.15414-3.3689-0.29784zm-107.26-238.47v-13.2h-13.35-13.35v13.2 13.2h13.35 13.35zm-455.1 210.01c-5.611-1.2037-9.9778-3.4385-13.504-6.9107-4.7001-4.6284-7.0366-10.408-7.3978-18.3-0.1563-3.4139-0.1467-3.4787 0.9159-6.1982 1.4532-3.7192 2.544-8.0308 2.9558-11.683 0.4288-3.8036-0.1096-7.0049-1.7102-10.168-0.5844-1.155-1.0619-2.4038-1.0611-2.775 0-0.62316 0.1365-0.675 1.762-0.675 5.5981 0 12.824 2.5136 17.107 5.9505 5.0055 4.0172 7.7218 8.9364 8.8897 16.1 0.7511 4.6063 0.6095 7.0081-0.5905 10.013-2.1029 5.2657-3.4001 11.954-3.0496 15.725 0.2249 2.4203 1.1299 5.3125 2.1531 6.881 0.4013 0.61521 0.7297 1.459 0.7297 1.875 0 0.74532-0.034 0.75612-2.325 0.7353-1.2788-0.0117-3.4725-0.26727-4.875-0.56814zm112.45 0.13488c-12.603-2.51-20.01-10.813-21.318-23.9l-0.3546-3.5457h-13.927-13.927l-2.5872-1.0332c-5.2656-2.1029-11.954-3.4-15.725-3.0496-2.4204 0.22494-5.3125 1.13-6.881 2.1532-0.6152 0.40131-1.5302 0.72969-2.0333 0.72969h-0.9148l0.1744-2.025c0.7868-9.1385 3.9655-15.97 9.5248-20.472 3.8564-3.1228 9.6586-5.2125 15.543-5.5981l2.9381-0.19257 0.5981-1.3903c2.2113-5.1403 3.43-10.519 3.4379-15.172 0.01-3.9058-0.5324-6.146-2.061-8.5676-0.4064-0.64374-0.7389-1.5106-0.7389-1.9264 0-0.74016 0.047-0.75596 2.2304-0.75596 5.5973 0 12.716 2.5652 17.135 6.175 4.9769 4.0649 8.2247 11.047 8.7308 18.769l0.1937 2.9561 4.3799 5e-3c5.1176 5e-3 7.2981 0.42573 10.25 1.9769 7.7104 4.0517 13.18 14.376 13.18 24.878 0 2.4625-0.1207 3.0931-1.0551 5.5125-1.2832 3.3226-2.4494 8.0057-2.8393 11.402-0.4691 4.0862 0.3034 8.1041 2.1041 10.943 0.4896 0.77217 0.8903 1.6692 0.8903 1.9935 0 0.54075-0.205 0.58725-2.475 0.56139-1.3613-0.0156-3.3743-0.20727-4.4735-0.42618zm409.03-27.908c-6.4336-1.7326-10.545-7.2835-10.545-14.238 0-6.9513 4.1718-12.568 10.615-14.292 2.0163-0.5394 6.2201-0.51363 8.3895 0.0514 4.0573 1.0568 7.263 3.7172 9.0901 7.5436l1.1204 2.3465v4.35 4.35l-1.0909 2.2844c-1.8356 3.8438-5.0868 6.5553-9.1196 7.6057-2.1726 0.56589-6.3539 0.5646-8.4601-3e-3zm-364-27.988c-6.3709-1.6631-10.476-7.2043-10.476-14.141 0-6.2724 2.7833-10.946 8.0035-13.438l2.3465-1.1204h4.35 4.35l2.3466 1.1204c5.1672 2.4673 8.0034 7.1733 8.0034 13.28 0 8.7094-6.0584 14.815-14.7 14.815-1.2375 0-3.1384-0.23193-4.2243-0.5154zm716.57 0.0855c-2.1889-1.0112-8.3655-2.8278-11.223-3.3008-5.392-0.89262-9.9206-0.25833-13.296 1.8622-0.6155 0.3867-1.4592 0.70308-1.875 0.70308-0.6896 0-0.7558-0.11184-0.7542-1.275 0-2.2077 0.8529-7.0341 1.664-9.4505 2.9435-8.7686 8.9411-14.399 17.652-16.57 3.8147-0.95086 8.4245-1.181 23.904-1.1937l13.671-0.0111 3.1695 1.1944c10.146 3.8232 18.055 4.0671 23.033 0.71015 0.57456-0.38749 1.3508-0.70454 1.725-0.70454 0.63837 0 0.68037 0.12213 0.68037 1.9779 0 2.5559-0.99483 7.4104-2.1105 10.299-2.985 7.7281-8.8577 13.008-16.689 15.005-4.2102 1.0736-7.0127 1.2188-23.043 1.1938-12.63-0.0198-15.78-0.10368-16.508-0.44013zm-202.05-28.331c-3.302-0.71634-5.6429-1.5533-8.0592-2.8814-8.115-4.4606-12.311-11.713-12.854-22.218l-0.1729-3.3447 1.2748-3.4015c1.5268-4.0736 2.6333-8.7759 2.8847-12.259 0.2331-3.23-0.3729-6.2791-1.8186-9.15-0.5816-1.155-1.0568-2.4038-1.0561-2.775 0-0.62317 0.1365-0.675 1.762-0.675 2.3528 0 6.2975 0.7129 8.9494 1.6174 10.935 3.7296 16.818 11.956 17.41 24.347 0.1562 3.2682 0.1433 3.3526-0.914 6-1.3724 3.4362-2.52 7.8711-2.957 11.427-0.5357 4.3593 0.3109 8.7971 2.2043 11.555 0.3007 0.43797 0.5467 1.1467 0.5467 1.575 0 0.77309-0.017 0.77854-2.325 0.75758-1.2787-0.0116-3.4725-0.27004-4.875-0.57429zm-633.87-27.648c-9.9733-1.0425-20.163-4.7184-28.832-10.401-5.573-3.6531-10.46-8.0345-14.954-13.406-8.2445-9.8545-13.748-23.142-15.027-36.277-0.2144-2.2036-0.3189-25.175-0.3189-70.125v-66.848l67.725 9e-3c72.501 0.01 70.639-0.0259 77.625 1.4969 6.7649 1.4747 14.64 4.689 20.55 8.3875 17.51 10.959 29.158 29.764 31.193 50.363 0.1991 2.0152 0.3069 26.653 0.3069 70.125v67.018l-67.875-0.0399c-37.331-0.0219-69.008-0.1583-70.393-0.30306zm107.28-82.532c-0.1065-57.082 0.036-52.637-1.8687-58.311-4.3459-12.946-15.471-22.531-28.86-24.866-2.2063-0.38474-9.7235-0.4474-53.676-0.4474h-51.111v50.475c0 55.402-0.062 53.3 1.8156 59.2 3.6264 11.392 12.429 20.37 23.66 24.133 5.3637 1.797 3.0479 1.7278 58.904 1.7611l51.232 0.0305-0.097-51.975zm-99.321 25.86c-5.1569-0.86531-9.3134-5.4848-10.155-11.286-1.0641-7.3372 2.7103-13.942 9.0391-15.816 1.4517-0.43007 5.0221-0.48274 32.721-0.48274s31.269 0.0527 32.72 0.48274c4.81 1.425 8.1757 5.5167 9.0223 10.969 1.2204 7.8585-3.3829 15.003-10.408 16.153-2.1701 0.35536-60.814 0.33769-62.94-0.019zm-1.3093-28.318c-3.7818-1.19-6.7726-4.1701-8.2654-8.2356-0.49-1.3347-0.6175-2.3939-0.6175-5.1319s0.1275-3.7971 0.6175-5.1318c1.3-3.5404 3.4336-5.9664 6.6324-7.5411l1.9846-0.97701h32.563 32.563l1.9437 0.9585c3.2034 1.5797 5.3971 4.067 6.6674 7.5596 0.4826 1.327 0.6117 2.4098 0.6117 5.1318s-0.1291 3.8049-0.6117 5.1319c-1.254 3.448-3.4894 5.9811-6.6672 7.5554l-1.9436 0.96278-32.106 0.0577c-25.957 0.0466-32.349-0.0185-33.371-0.34016zm-0.086-28.03c-4.7289-1.5196-7.9662-5.6065-8.7611-11.061-1.1292-7.7472 3.3029-14.669 10.227-15.973 2.2027-0.41465 60.866-0.41465 63.068 0 5.3945 1.0155 9.391 5.4535 10.216 11.345 1.0283 7.3419-2.7472 13.938-9.0297 15.775-1.4441 0.42229-5.1798 0.47464-32.85 0.46035-29.002-0.015-31.338-0.0538-32.87-0.54634zm180.22 112.89c-10.818-1.956-18.417-8.7442-20.922-18.691-1.0967-4.3541-1.2369-9.7041-1.1413-43.534l0.091-32.25 0.8258-2.3335c2.1702-6.133 7.3479-11.078 14.474-13.824 4.6921-1.8077 6.3571-2.0524 15.031-2.2089 8.6676-0.15639 10.005 0.0129 13.469 1.7055 6.7245 3.2856 12.011 11.671 13.328 21.141 0.2036 1.4638 0.3201 9.823 0.3173 22.766-0.01 22.674 0 22.554-1.9541 26.28-3.9346 7.4876-12.777 12.506-23.569 13.378l-2.5775 0.2082-1.1134 3.0106c-2.0285 5.4854-2.7043 8.842-2.703 13.426 0 4.3837 0.4608 6.3198 2.081 8.7682 0.4073 0.61542 0.7405 1.4593 0.7405 1.8754 0 0.73652-0.053 0.75572-2.025 0.72951-1.1137-0.0148-3.0726-0.21633-4.353-0.44783zm112.58 0.13309c-0.9075-0.14933-2.7933-0.61941-4.1907-1.0446-11.003-3.3481-17.405-11.631-18.202-23.551l-0.193-2.8877-4.9823-0.16045c-5.4971-0.17703-6.5574-0.41276-10.016-2.2267-1.4845-0.77852-2.9212-1.8959-4.5661-3.5512-4.9361-4.9676-7.6558-11.586-8.2542-20.086-0.151-2.145-0.2793-16.137-0.2852-31.093-0.01-25.615-0.041-27.205-0.5356-27.397-11.3-4.3948-19.323-4.8692-24.744-1.4631-0.6155 0.38671-1.4592 0.7031-1.875 0.7031-0.6896 0-0.7558-0.11185-0.7542-1.275 0-2.1993 0.8515-7.0295 1.66-9.4505 2.8636-8.5746 8.9174-14.305 17.538-16.601 2.2987-0.61214 3.3993-0.69106 11.166-0.80055 7.403-0.10437 8.8598-0.051 10.35 0.37943 7.205 2.0809 13.177 8.993 15.55 17.997 1.1827 4.4886 1.3348 7.0608 1.3348 22.567v14.783l3.975 5e-3c2.3234 3e-3 4.8476 0.18841 6.075 0.44611 8.6515 1.8164 15.555 10.46 17.39 21.774 0.3702 2.2826 0.4584 5.9374 0.4593 19.046v16.221l-1.2283 3.2596c-1.4808 3.9296-2.5954 8.6887-2.845 12.148-0.2331 3.23 0.3729 6.2791 1.8186 9.15 0.5816 1.155 1.0568 2.4038 1.0561 2.775 0 0.63667-0.1163 0.67301-2.0264 0.63993-1.1137-0.0193-2.7675-0.15725-3.675-0.30659zm43.831-0.1331c-3.9211-1.0544-7.1849-3.8102-8.9904-7.5908l-1.091-2.2844v-4.35-4.35l1.1205-2.3465c1.8271-3.8265 5.0328-6.4868 9.09-7.5436 2.1695-0.56507 6.3733-0.59086 8.3895-0.0515 6.4437 1.7238 10.616 7.3403 10.616 14.292 0 7.0224-4.1401 12.551-10.673 14.252-2.1485 0.55961-6.3284 0.54615-8.4607-0.0273zm392.15 0.0123c-6.4336-1.7326-10.545-7.2835-10.545-14.238 0-6.9513 4.1718-12.568 10.615-14.292 2.0163-0.5394 6.2201-0.51361 8.3895 0.0515 4.0573 1.0568 7.263 3.7171 9.0901 7.5436l1.1204 2.3465v4.35 4.35l-1.0909 2.2844c-1.8356 3.8438-5.0868 6.5553-9.1196 7.6057-2.1726 0.56589-6.3539 0.5646-8.4601-3e-3zm45.521-66.406c0-43.158 0.1084-67.97 0.3056-69.975 1.9974-20.308 12.927-38.516 29.858-49.74 7.4511-4.9398 15.324-8.0631 25.186-9.9912l3.3-0.64518 69.375-0.0969 69.375-0.0969v67.025c0 43.477-0.10785 68.117-0.30699 70.132-0.82251 8.3239-3.1736 16.294-7.0668 23.957-10.248 20.169-29.957 33.735-52.283 35.987-2.0584 0.20758-25.823 0.31331-70.425 0.31331h-67.318v-66.868zm135.78 35.504c13.278-2.3155 24.434-11.953 28.763-24.849 1.9046-5.6738 1.7622-1.2291 1.8687-58.311l0.097-51.975h-51.117c-56.117 0-53.426-0.0822-59.058 1.8048-11.189 3.7488-20 12.745-23.62 24.12-1.8781 5.8998-1.8136 3.7986-1.8156 59.2v50.475h51.111c44.789 0 51.44-0.0574 53.774-0.46439zm-68.689-25.65c-3.5221-0.59098-7.1387-3.4067-8.8436-6.8853-3.2457-6.6221-0.9492-15.612 4.8553-19.007 2.9997-1.7545 1.6972-1.6926 35.593-1.6926 27.699 0 31.269 0.0527 32.721 0.48274 4.8268 1.43 8.1754 5.5153 9.0297 11.016 1.2196 7.8531-3.3712 14.952-10.416 16.105-2.1701 0.35536-60.814 0.33769-62.939-0.019zm-1.3094-28.318c-3.7495-1.1799-6.7993-4.2209-8.2594-8.2356-0.4826-1.327-0.6117-2.4098-0.6117-5.1319s0.1291-3.8049 0.6117-5.1318c1.2702-3.4927 3.4639-5.9799 6.6673-7.5596l1.9437-0.9585h32.563 32.563l1.9846 0.97701c3.1988 1.5747 5.3324 4.0007 6.6324 7.5411 0.49008 1.3347 0.61755 2.3939 0.61755 5.1318s-0.12747 3.7971-0.61755 5.1319c-1.2867 3.5042-3.4737 5.9818-6.6731 7.5596l-1.9436 0.9585-32.106 0.0577c-25.957 0.0466-32.349-0.0185-33.371-0.34016zm-0.1131-28.036c-4.6636-1.4921-7.9455-5.6459-8.7338-11.054-1.1292-7.7472 3.303-14.669 10.227-15.973 2.2027-0.41465 60.865-0.41465 63.068 0 6.9241 1.3034 11.356 8.2256 10.227 15.973-0.61899 4.2469-2.7458 7.7084-6.0091 9.78-3.0271 1.9217-1.5141 1.8446-35.881 1.8269-29.141-0.0151-31.332-0.0519-32.898-0.55278zm-320.37 56.328c-2.901-1.1935-8.3693-2.5811-11.633-2.952-4.1329-0.46962-8.136 0.29665-10.984 2.1024-0.7721 0.48969-1.6692 0.89034-1.9935 0.89034-0.5329 0-0.5896-0.21306-0.5896-2.2169 0-5.9275 2.4802-12.847 6.2319-17.387 3.9129-4.7351 10.017-7.7664 17.268-8.575 1.6692-0.18614 9.3463-0.3207 18.296-0.3207h15.421l2.2163 0.91512c4.7148 1.9468 10.708 3.2871 14.666 3.28 2.9454-5e-3 5.7042-0.67785 8.0354-1.959 1.0369-0.56987 2.1683-1.0361 2.5143-1.0361 0.6075 0 0.6239 0.1051 0.4791 3.075-0.1812 3.7186-1.0712 7.3108-2.6457 10.678-3.3346 7.1315-8.4695 11.399-16.384 13.618-2.2836 0.64005-2.8507 0.66042-20.499 0.73619l-18.15 0.0779-2.25-0.92566zm-31.065-27.398c-11.677-2.1212-19.002-8.8621-21.53-19.812-0.6029-2.6115-0.6287-3.7022-0.789-33.266l-0.1658-30.566-2.1034-0.83962c-4.5152-1.8023-11.012-3.2719-14.484-3.2767-2.2621-3e-3 -5.8367 0.89981-7.7977 1.9697-1.0369 0.56571-2.2182 1.0286-2.625 1.0286-0.7022 0-0.7397-0.0892-0.7397-1.7607 0-3.8256 1.3253-9.0266 3.2971-12.939 3.2783-6.5051 8.6636-10.698 16.219-12.628 3.5303-0.90185 17.267-1.1994 20.5-0.44399 3.3835 0.79055 5.9756 2.3436 9.0339 5.4128 3.0932 3.1041 4.7239 5.7364 6.3198 10.201 1.984 5.5511 1.9458 4.7398 1.8467 39.158l-0.089 31.05-1.3912 3.9c-2.5717 7.2094-3.1024 12.918-1.6129 17.35 0.4343 1.2927 1.1244 2.8428 1.5333 3.4446 0.4091 0.60189 0.7437 1.4005 0.7437 1.7747 0 0.64263-0.1123 0.67886-2.025 0.65328-1.1138-0.0149-2.9768-0.19997-4.1401-0.4113zm111.69-0.0364c-12.897-2.3318-21.068-11.481-21.746-24.35l-0.1621-3.075-18.032-5e-3c-20.015-6e-3 -20.53-0.0466-24.332-1.9243-6.9076-3.412-12.036-11.604-13.346-21.32-0.5554-4.1192-0.2948-6.3025 1.2889-10.8 3.1506-8.9468 3.3425-14.776 0.6617-20.1-0.5816-1.155-1.0568-2.4237-1.0561-2.8193 0-0.71751 0.01-0.71878 2.5336-0.52462 10.465 0.80441 18.619 5.7283 22.667 13.688 1.6409 3.2264 2.9945 8.9495 2.9991 12.681v1.425h27.863 27.863l1.6497 0.72958c0.9074 0.40126 2.9829 1.1374 4.6124 1.6358 7.0136 2.1454 12.021 2.4915 16.113 1.1134 1.2926-0.43535 2.8427-1.1262 3.4446-1.5352 0.6019-0.409 1.4005-0.74363 1.7747-0.74363 0.6384 0 0.6804 0.12213 0.6804 1.9779 0 2.5559-0.9949 7.4104-2.1106 10.299-2.401 6.2162-6.9743 11.136-12.708 13.672-2.5364 1.1217-5.946 1.9254-9.8181 2.3143l-3.4869 0.35021-1.1041 2.9854c-2.0191 5.4599-2.695 8.8224-2.6936 13.401 0 4.3837 0.4607 6.3198 2.081 8.7682 0.4073 0.61542 0.7405 1.4593 0.7405 1.8754 0 0.73652-0.053 0.75572-2.025 0.72951-1.1138-0.0148-3.0726-0.21633-4.3531-0.44783zm128.56 0.0123c-6.4336-1.7326-10.545-7.2835-10.545-14.238 0-6.9513 4.1718-12.568 10.615-14.292 2.0163-0.53939 6.2201-0.5136 8.3895 0.0515 4.0573 1.0568 7.263 3.7171 9.0901 7.5436l1.1204 2.3465v4.35 4.35l-1.0909 2.2844c-1.8356 3.8438-5.0868 6.5553-9.1196 7.6057-2.1726 0.5659-6.3539 0.56461-8.4601-3e-3zm-547.88-55.85c-7.9622-1.3916-14.834-5.5885-18.368-11.219-2.5647-4.0858-3.7257-8.121-4.177-14.518-0.4676-6.6294-0.1679-12.46 0.7867-15.304 1.016-3.0268 2.7461-5.6848 5.218-8.0166 5.0893-4.801 11.962-7.5481 19.89-7.95 3.1995-0.1622 3.1995-0.1622 6.5961 1.1109 4.0691 1.5251 8.7724 2.6316 12.254 2.8828 3.23 0.23309 6.2792-0.37294 9.15-1.8186 1.155-0.58159 2.4038-1.0568 2.775-1.0561 0.6219 1e-3 0.6749 0.13718 0.6728 1.7263-0.01 5.4103-2.4938 12.786-5.6621 16.794-4.6879 5.9306-10.728 8.8823-19.669 9.6119l-2.6834 0.21897-1.0066 2.513c-2.5999 6.4907-3.6706 13.847-2.6466 18.185 0.2724 1.1539 0.9621 2.9473 1.5327 3.9853 1.6049 2.9199 1.5314 3.0748-1.4377 3.0258-1.3612-0.0225-2.8125-0.0998-3.225-0.17194zm99.45-0.19408c-4.8454-1.597-8.3649-5.2499-9.5901-9.9536-0.5651-2.1694-0.5908-6.3733-0.051-8.3895 1.7238-6.4437 7.3403-10.615 14.292-10.615s12.568 4.1718 14.292 10.615c0.5394 2.0162 0.5136 6.2201-0.052 8.3895-1.0504 4.0327-3.7619 7.2839-7.6057 9.1196-2.2267 1.0634-2.383 1.0927-6.1845 1.1602-2.5964 0.0461-4.3011-0.0629-5.1-0.32618zm-27.719-27.968c-3.9211-1.0544-7.1849-3.8102-8.9904-7.5908l-1.091-2.2844v-4.35-4.35l1.1205-2.3465c1.8271-3.8265 5.0328-6.4868 9.09-7.5436 2.1695-0.56507 6.3733-0.59086 8.3895-0.0515 6.4437 1.7238 10.616 7.3403 10.616 14.292 0 7.0224-4.1401 12.551-10.673 14.252-2.1485 0.55961-6.3284 0.54615-8.4607-0.0272zm84 0c-3.9211-1.0544-7.1849-3.8102-8.9904-7.5908l-1.091-2.2844v-4.35-4.35l1.1205-2.3465c1.8271-3.8265 5.0328-6.4868 9.09-7.5436 2.1695-0.56507 6.3733-0.59086 8.3895-0.0515 6.4437 1.7238 10.616 7.3403 10.616 14.292 0 7.0224-4.1401 12.551-10.673 14.252-2.1485 0.55961-6.3284 0.54615-8.4607-0.0272zm56.148 0.0123c-6.4336-1.7326-10.545-7.2835-10.545-14.238 0-6.9513 4.1718-12.568 10.615-14.292 2.0163-0.53939 6.2201-0.51361 8.3895 0.0515 4.0573 1.0568 7.263 3.7171 9.0901 7.5436l1.1204 2.3465v4.35 4.35l-1.0909 2.2844c-1.8356 3.8438-5.0868 6.5553-9.1196 7.6057-2.1726 0.56589-6.3539 0.5646-8.4601-3e-3zm168 0c-6.4336-1.7326-10.545-7.2835-10.545-14.238 0-6.9513 4.1718-12.568 10.615-14.292 2.0163-0.53939 6.2201-0.51361 8.3895 0.0515 4.0573 1.0568 7.263 3.7171 9.0901 7.5436l1.1204 2.3465v4.35 4.35l-1.0909 2.2844c-1.8356 3.8438-5.0868 6.5553-9.1196 7.6057-2.1726 0.56589-6.3539 0.5646-8.4601-3e-3z" fill="#fefefe"/>
</g>
</g>
</g>
</svg>
