<?xml version="1.0" encoding="UTF-8" standalone="no"?>
<!-- Created with Inkscape (http://www.inkscape.org/) -->

<svg
   xmlns:dc="http://purl.org/dc/elements/1.1/"
   xmlns:cc="http://creativecommons.org/ns#"
   xmlns:rdf="http://www.w3.org/1999/02/22-rdf-syntax-ns#"
   xmlns:svg="http://www.w3.org/2000/svg"
   xmlns="http://www.w3.org/2000/svg"
   xmlns:sodipodi="http://sodipodi.sourceforge.net/DTD/sodipodi-0.dtd"
   xmlns:inkscape="http://www.inkscape.org/namespaces/inkscape"
   width="512"
   height="512"
   viewBox="0 0 512 512"
   id="svg2"
   version="1.1"
   inkscape:version="0.91 r13725"
   sodipodi:docname="favico.svg">
  <defs
     id="defs4" />
  <sodipodi:namedview
     id="base"
     pagecolor="#ffffff"
     bordercolor="#666666"
     borderopacity="1.0"
     inkscape:pageopacity="0.0"
     inkscape:pageshadow="2"
     inkscape:zoom="0.35"
     inkscape:cx="-844.78074"
     inkscape:cy="-233.69304"
     inkscape:document-units="px"
     inkscape:current-layer="flowRoot4133"
     showgrid="false"
     units="px"
     inkscape:window-width="1920"
     inkscape:window-height="1017"
     inkscape:window-x="-8"
     inkscape:window-y="-8"
     inkscape:window-maximized="1"
     fit-margin-top="0"
     fit-margin-left="0"
     fit-margin-right="0"
     fit-margin-bottom="0" />
  <metadata
     id="metadata7">
    <rdf:RDF>
      <cc:Work
         rdf:about="">
        <dc:format>image/svg+xml</dc:format>
        <dc:type
           rdf:resource="http://purl.org/dc/dcmitype/StillImage" />
        <dc:title></dc:title>
      </cc:Work>
    </rdf:RDF>
  </metadata>
  <g
     inkscape:label="Layer 1"
     inkscape:groupmode="layer"
     id="layer1"
     transform="translate(-63.6009,65.77818)">
    <g
       transform="translate(2151.4286,510.93363)"
       style="font-style:normal;font-weight:normal;font-size:20px;line-height:1000%;font-family:sans-serif;letter-spacing:0px;word-spacing:0px;fill:#000000;fill-opacity:1;stroke:none;stroke-width:1px;stroke-linecap:butt;stroke-linejoin:miter;stroke-opacity:1"
       id="flowRoot4133">
      <path
         d="m -1727.3055,-207.9657 q 9.5503,29.18135 16.4477,57.83212 2.6528,0 5.3057,0.53057 3.1834,0 3.714,0 9.0197,0 10.6114,-6.8974 1.5918,-7.42798 2.6528,-51.46529 l -38.7316,0 z m -3.7139,-233.45077 0,-23.87565 -198.9638,0 0,23.87565 198.9638,0 z m -315.6891,236.10363 74.2798,21.22279 q -9.5503,55.17928 -34.4871,119.378239 l -74.2798,-31.834194 q 21.2228,-54.648705 34.4871,-108.766835 z m 98.1554,129.989633 q -4.7751,-44.567883 -15.9171,-108.766843 l 68.9741,-7.95854 q 12.7336,54.11812 18.5699,108.766833 l -71.6269,7.95855 z m 94.4414,-12.203109 q -7.4279,-46.690154 -20.1617,-99.216574 l 64.7296,-12.20311 q 12.2032,44.56787 21.2228,99.747151 l -65.7907,11.672533 z m 88.6052,-16.978244 q -8.4891,-43.50674 -23.8756,-90.19688 l 50.9347,-13.26426 -289.6912,0 0,-326.30051 126.2756,0 q 5.8363,-23.34508 9.0197,-42.4456 l 100.8084,5.3057 q -5.3057,25.46736 -7.9586,37.1399 l 167.1295,0 0,156.51813 -297.1192,0 0,18.56995 347.5234,0 0,66.32125 -347.5234,0 0,18.56995 336.912,0 0,47.75128 q 0,70.5658 -6.8975,102.93058 -6.8973,32.895334 -20.1616,41.915024 -12.7337,9.019688 -41.915,9.019688 -27.5896,0 -82.2384,-2.652849 l -3.7139,-33.956473 -17.5089,4.77513 z"
         style="font-style:normal;font-variant:normal;font-weight:900;font-stretch:normal;font-size:180px;line-height:100%;font-family:'Mplus 1p';-inkscape-font-specification:'Mplus 1p Heavy'"
         id="path4142"
         inkscape:connector-curvature="0" />
    </g>
  </g>
</svg>
