<?xml version="1.0" encoding="UTF-8"?>
<svg version="1.1" viewBox="0 0 512 512" xmlns="http://www.w3.org/2000/svg" xmlns:cc="http://creativecommons.org/ns#" xmlns:dc="http://purl.org/dc/elements/1.1/" xmlns:rdf="http://www.w3.org/1999/02/22-rdf-syntax-ns#">
<metadata>
<rdf:RDF>
<cc:Work rdf:about="">
<dc:format>image/svg+xml</dc:format>
<dc:type rdf:resource="http://purl.org/dc/dcmitype/StillImage"/>
<dc:title/>
</cc:Work>
</rdf:RDF>
</metadata>
<g transform="translate(-63.601 65.778)">
<g transform="translate(2151.4 510.93)" stroke-width="1px">
<path d="m-1727.3-207.97q9.5503 29.181 16.448 57.832 2.6528 0 5.3057 0.53057 3.1834 0 3.714 0 9.0197 0 10.611-6.8974 1.5918-7.428 2.6528-51.465h-38.732zm-3.7139-233.45v-23.876h-198.96v23.876h198.96zm-315.69 236.1 74.28 21.223q-9.5503 55.179-34.487 119.38l-74.28-31.834q21.223-54.649 34.487-108.77zm98.155 129.99q-4.7751-44.568-15.917-108.77l68.974-7.9585q12.734 54.118 18.57 108.77l-71.627 7.9586zm94.441-12.203q-7.4279-46.69-20.162-99.217l64.73-12.203q12.203 44.568 21.223 99.747l-65.791 11.673zm88.605-16.978q-8.4891-43.507-23.876-90.197l50.935-13.264h-289.69v-326.3h126.28q5.8363-23.345 9.0197-42.446l100.81 5.3057q-5.3057 25.467-7.9586 37.14h167.13v156.52h-297.12v18.57h347.52v66.321h-347.52v18.57h336.91v47.751q0 70.566-6.8975 102.93-6.8973 32.895-20.162 41.915-12.734 9.0197-41.915 9.0197-27.59 0-82.238-2.6528l-3.7139-33.956-17.509 4.7751z"/>
</g>
</g>
</svg>
